<svg xmlns="http://www.w3.org/2000/svg" width="225" height="225" viewBox="0 0 225 225" version="1.1"><path d="M -0 112.504 L -0 225.009 112.750 224.754 L 225.500 224.500 225.754 112.250 L 226.009 0 113.004 0 L 0 0 -0 112.504 M 0.483 113 C 0.483 174.875, 0.603 200.188, 0.750 169.250 C 0.897 138.313, 0.897 87.688, 0.750 56.750 C 0.603 25.813, 0.483 51.125, 0.483 113 M 22.410 52.373 C 22.100 53.181, 22.026 72.890, 22.245 96.171 C 22.684 142.786, 22.849 144.208, 29.251 156.419 C 33.508 164.539, 44.825 175.877, 52.580 179.789 C 64.950 186.031, 64.549 186, 133.441 186 L 196.094 186 195.797 140.250 C 195.502 94.738, 195.488 94.469, 193.118 88.500 C 186.277 71.267, 173.553 59.232, 156 53.393 C 150.947 51.713, 145.318 51.537, 86.737 51.234 C 31.373 50.947, 22.900 51.097, 22.410 52.373 M 54 118.623 L 54 145.247 65.799 144.826 C 82.847 144.218, 88.809 140.600, 89.695 130.324 C 90.201 124.457, 87.562 119.560, 82.818 117.566 C 79.751 116.276, 79.727 116.217, 81.827 115.092 C 86.598 112.539, 88.373 104.555, 85.434 98.872 C 82.855 93.886, 77.305 92.048, 64.750 92.022 L 54 92 54 118.623 M 128.006 110.750 C 128.009 121.274, 128.493 131.234, 129.109 133.453 C 132.300 144.948, 147.497 149.493, 157.795 142.033 C 164.026 137.520, 165 133.302, 165 110.822 L 165 92 162 92 L 159 92 159 110.532 C 159 124.019, 158.625 129.963, 157.621 132.364 C 153.333 142.627, 139.667 142.627, 135.379 132.364 C 134.375 129.963, 134 124.019, 134 110.532 L 134 92 131 92 L 128 92 128.006 110.750 M 60 105.394 L 60 114 66.953 114 C 74.953 114, 78.320 112.788, 79.890 109.343 C 81.568 105.659, 81.244 103.395, 78.597 100.318 C 76.399 97.763, 75.500 97.492, 68.097 97.156 L 60 96.788 60 105.394 M 105.001 106.123 C 91.995 111.309, 89.891 134.767, 101.726 142.626 C 107.926 146.743, 116.735 146.496, 122.155 142.051 C 124.328 140.270, 124.380 140.007, 122.866 138.466 C 121.342 136.915, 121.054 136.918, 118.611 138.519 C 115.537 140.533, 109.075 140.685, 106.061 138.814 C 100.733 135.506, 98.415 124.142, 101.670 117.283 C 104.698 110.902, 112.776 108.053, 117.820 111.587 C 119.615 112.844, 120.389 112.922, 121.543 111.964 C 123.867 110.035, 123.254 108.349, 119.599 106.614 C 115.828 104.824, 108.847 104.590, 105.001 106.123 M 60 129.488 L 60 140.257 67.861 139.802 C 77.783 139.228, 82.104 136.984, 83.421 131.723 C 85.409 123.782, 80.915 120.023, 68.507 119.249 L 60 118.718 60 129.488" stroke="none" fill="#fbfbfb" fill-rule="evenodd"/><path d="M 22.410 52.373 C 22.100 53.181, 22.026 72.890, 22.245 96.171 C 22.684 142.786, 22.849 144.208, 29.251 156.419 C 33.508 164.539, 44.825 175.877, 52.580 179.789 C 64.950 186.031, 64.549 186, 133.441 186 L 196.094 186 195.797 140.250 C 195.502 94.738, 195.488 94.469, 193.118 88.500 C 186.277 71.267, 173.553 59.232, 156 53.393 C 150.947 51.713, 145.318 51.537, 86.737 51.234 C 31.373 50.947, 22.900 51.097, 22.410 52.373 M 54 118.623 L 54 145.247 65.799 144.826 C 82.847 144.218, 88.809 140.600, 89.695 130.324 C 90.201 124.457, 87.562 119.560, 82.818 117.566 C 79.751 116.276, 79.727 116.217, 81.827 115.092 C 86.598 112.539, 88.373 104.555, 85.434 98.872 C 82.855 93.886, 77.305 92.048, 64.750 92.022 L 54 92 54 118.623 M 128.006 110.750 C 128.009 121.274, 128.493 131.234, 129.109 133.453 C 132.300 144.948, 147.497 149.493, 157.795 142.033 C 164.026 137.520, 165 133.302, 165 110.822 L 165 92 162 92 L 159 92 159 110.532 C 159 124.019, 158.625 129.963, 157.621 132.364 C 153.333 142.627, 139.667 142.627, 135.379 132.364 C 134.375 129.963, 134 124.019, 134 110.532 L 134 92 131 92 L 128 92 128.006 110.750 M 60 105.394 L 60 114 66.953 114 C 74.953 114, 78.320 112.788, 79.890 109.343 C 81.568 105.659, 81.244 103.395, 78.597 100.318 C 76.399 97.763, 75.500 97.492, 68.097 97.156 L 60 96.788 60 105.394 M 105.001 106.123 C 91.995 111.309, 89.891 134.767, 101.726 142.626 C 107.926 146.743, 116.735 146.496, 122.155 142.051 C 124.328 140.270, 124.380 140.007, 122.866 138.466 C 121.342 136.915, 121.054 136.918, 118.611 138.519 C 115.537 140.533, 109.075 140.685, 106.061 138.814 C 100.733 135.506, 98.415 124.142, 101.670 117.283 C 104.698 110.902, 112.776 108.053, 117.820 111.587 C 119.615 112.844, 120.389 112.922, 121.543 111.964 C 123.867 110.035, 123.254 108.349, 119.599 106.614 C 115.828 104.824, 108.847 104.590, 105.001 106.123 M 60 129.488 L 60 140.257 67.861 139.802 C 77.783 139.228, 82.104 136.984, 83.421 131.723 C 85.409 123.782, 80.915 120.023, 68.507 119.249 L 60 118.718 60 129.488" stroke="none" fill="#0d459c" fill-rule="evenodd"/></svg>