<svg xmlns="http://www.w3.org/2000/svg" width="799" height="348" viewBox="0 0 799 348" version="1.1"><path d="" stroke="none" fill="#203c94" fill-rule="evenodd"/><path d="M 350.500 56.508 C 349.950 56.700, 341.512 58.750, 331.750 61.064 L 314 65.270 314.017 164.385 C 314.036 270.034, 314.092 271.380, 318.897 280.797 C 320.022 283.002, 322.584 286.160, 324.592 287.815 C 335.965 297.190, 359.761 293.076, 368.494 280.224 C 369.872 278.196, 371 276.245, 371 275.889 C 371 275.534, 369.709 274.708, 368.131 274.054 C 361.254 271.206, 355.932 262.479, 354.069 250.994 C 353.384 246.776, 353.012 211.466, 353.008 150.250 C 353.003 98.412, 352.663 56.036, 352.250 56.079 C 351.837 56.122, 351.050 56.315, 350.500 56.508 M 521.500 64.337 C 519.850 65.086, 517.018 66.949, 515.206 68.475 C 502.745 78.978, 506.094 100.129, 521.218 106.447 C 525.793 108.358, 534.961 108.462, 539.282 106.652 C 552.084 101.287, 557.446 85.726, 550.414 74.351 C 548.785 71.717, 545.522 68.205, 543.163 66.547 C 539.508 63.978, 537.812 63.491, 531.687 63.253 C 527.184 63.078, 523.380 63.483, 521.500 64.337 M 410.500 85.859 L 392.500 92.570 392.226 109.285 L 391.952 126 382.476 126 L 373 126 373 142 L 373 158 382.455 158 L 391.910 158 392.221 206.250 C 392.524 253.176, 392.594 254.683, 394.775 261.150 C 399.640 275.570, 409.706 285.924, 422.938 290.114 C 434.686 293.834, 459.141 293.702, 475.927 289.827 L 481 288.657 481 270.499 L 481 252.342 475.250 255.123 C 463.665 260.726, 446.849 261.264, 440.128 256.246 C 431.665 249.928, 431 245.668, 431 197.809 L 431 158.038 453.250 157.769 L 475.500 157.500 475.775 141.750 L 476.051 126 453.525 126 L 431 126 431 102.500 C 431 84.327, 430.717 79.017, 429.750 79.075 C 429.063 79.116, 420.400 82.169, 410.500 85.859 M 151 118.996 C 144.111 120.696, 134 124.437, 134 125.286 C 134 125.572, 187.276 234.716, 195.231 250.726 C 201.738 263.823, 215.757 277.255, 230.350 284.375 C 243.617 290.848, 250.903 292.470, 266.500 292.424 C 280.204 292.384, 287.382 291.040, 297.003 286.711 L 301.918 284.500 271.974 222.226 C 241.543 158.938, 238.147 152.499, 230.364 143.324 C 221.252 132.585, 205.095 122.951, 189.590 119.010 C 179.186 116.366, 161.682 116.360, 151 118.996 M 609 123.612 C 591.477 126.780, 578 130.931, 578 133.161 C 578 134.011, 580.394 142.971, 584.557 157.700 L 586.027 162.900 592.263 160.558 C 595.694 159.270, 601.962 157.660, 606.193 156.980 C 615.992 155.406, 634.865 156.182, 641.056 158.413 C 650.300 161.746, 656.372 169.141, 657.676 178.655 C 658.301 183.211, 658.261 183.301, 655.908 182.645 C 646.679 180.077, 623.800 181.261, 608.704 185.089 C 577.989 192.878, 561.067 212.966, 561.015 241.701 C 560.986 257.928, 565.225 269.095, 574.929 278.351 C 584.486 287.467, 595.375 291.613, 612.518 292.662 C 630.084 293.737, 648.216 288.372, 658.238 279.135 L 662.604 275.110 664.511 278.650 C 667.152 283.555, 675.422 290.745, 679.831 291.970 C 688.523 294.384, 699.486 292.362, 705.074 287.314 C 710.010 282.855, 710.866 280.295, 708.077 278.341 C 706.914 277.527, 704.843 274.651, 703.474 271.950 C 698.490 262.113, 697.917 257.158, 697.006 216 C 696.121 176.041, 695.700 171.987, 691.046 158.580 C 688.095 150.079, 684.962 145.200, 678.579 139.163 C 672.091 133.027, 662.127 128.078, 651 125.464 C 643.754 123.762, 615.149 122.501, 609 123.612 M 488 143 L 488 159 499 159 L 510 159 510 225.500 L 510 292 530 292 L 550 292 550 209.500 L 550 127 519 127 L 488 127 488 143 M 112.905 135.093 C 89.870 149.811, 76.938 173.328, 76.938 200.500 C 76.938 231.439, 92.804 256.890, 120.856 270.950 C 139.147 280.118, 164.429 280.894, 183.105 272.860 C 185.838 271.684, 187.945 270.404, 187.787 270.014 C 187.629 269.625, 184.624 263.230, 181.109 255.803 L 174.718 242.299 169.609 244.252 C 163.175 246.710, 151.036 247.602, 144.140 246.123 C 132.074 243.536, 119.170 234.269, 113.791 224.329 C 105.119 208.308, 106.334 188.349, 116.824 174.478 C 120.169 170.055, 127.985 163.054, 132.458 160.474 C 134.082 159.537, 133.613 158.202, 127.112 145.224 C 123.193 137.401, 119.834 131, 119.648 131 C 119.462 131, 116.428 132.842, 112.905 135.093 M 631.161 212.012 C 617.412 213.935, 607.869 218.963, 603.338 226.672 C 600.817 230.961, 600.500 232.457, 600.500 240.073 C 600.500 247.682, 600.799 249.098, 603.161 252.667 C 604.624 254.878, 607.441 257.456, 609.421 258.395 C 623.235 264.951, 644.598 261.050, 652.183 250.586 C 656.228 245.006, 657.952 238.176, 658.667 224.904 L 659.291 213.308 655.895 212.616 C 649.914 211.397, 637.692 211.098, 631.161 212.012" stroke="none" fill="#1c3c94" fill-rule="evenodd"/></svg>