<svg xmlns="http://www.w3.org/2000/svg" width="225" height="224" viewBox="0 0 225 224" version="1.1"><path d="M 0.090 50.250 C 0.172 96.059, 0.301 99.829, 1.554 92.909 C 4.053 79.106, 12.039 60.274, 21.136 46.733 C 30.307 33.081, 51.792 16.020, 68.652 9.001 C 77.307 5.398, 88.953 2.271, 98.176 1.074 C 102.084 0.567, 84.538 0.205, 52.250 0.127 L 0 0 0.090 50.250 M 127.750 1.066 C 143.246 3.081, 162.904 10.975, 177.426 21.014 C 186.012 26.949, 199.819 40.920, 205.276 49.193 C 213.581 61.783, 221.439 81.718, 223.925 96.500 C 224.441 99.568, 224.811 81.888, 224.883 50.750 L 225 0 173.250 0.127 C 141.643 0.204, 123.933 0.570, 127.750 1.066 M 124.500 7 C 124.160 7.550, 122.671 8.010, 121.191 8.022 L 118.500 8.044 121 10 C 122.375 11.076, 124.625 11.997, 126 12.048 C 127.375 12.099, 129.400 12.497, 130.500 12.932 C 131.600 13.367, 133.063 13.512, 133.750 13.255 C 135.464 12.612, 135.326 8.516, 133.541 7.034 C 132.339 6.037, 131.968 6.279, 131.433 8.412 C 130.549 11.935, 127 12.005, 127 8.500 C 127 5.975, 125.639 5.158, 124.500 7 M 91 8.678 C 91 12.629, 94.662 14.195, 97.429 11.429 C 99.697 9.160, 99.364 8.208, 96.494 8.756 C 95.116 9.020, 93.316 8.677, 92.494 7.995 C 91.257 6.968, 91 7.085, 91 8.678 M 83.534 10.892 C 83.204 11.933, 82.049 13.016, 80.967 13.298 C 79.664 13.639, 79 14.668, 79 16.347 C 79 19.259, 77.869 20.271, 75.590 19.396 C 74.513 18.983, 74 17.529, 74 14.893 C 74 12.752, 73.550 11, 73 11 C 72.450 11, 72 11.900, 72 13 C 72 14.100, 71.520 15, 70.933 15 C 70.331 15, 70.134 15.847, 70.481 16.939 C 71.249 19.359, 67.882 21.402, 64.264 20.710 C 62.401 20.354, 61.625 20.716, 61.260 22.115 C 60.985 23.166, 59.885 24, 58.775 24 C 57.104 24, 56.893 23.558, 57.464 21.250 L 58.146 18.500 54.823 21.627 C 52.995 23.347, 50.825 24.982, 50 25.261 C 48.667 25.711, 48.667 25.827, 50 26.309 C 50.825 26.607, 53.638 27.137, 56.250 27.487 C 60.708 28.083, 61 28.305, 61 31.093 C 61 34.531, 58.328 36.169, 56.591 33.794 C 55.090 31.741, 48.841 31.916, 49.246 34 C 49.415 34.875, 50.659 35.519, 52.231 35.546 C 53.712 35.571, 55.242 35.908, 55.629 36.296 C 56.016 36.683, 57.825 37, 59.648 37 C 64.195 37, 65.217 33.335, 62.506 26.750 C 62.011 25.546, 62.249 25, 63.271 25 C 64.087 25, 65.275 24.374, 65.910 23.609 C 67.458 21.743, 72.955 21.024, 75.792 22.316 C 77.655 23.164, 78.471 22.974, 80.143 21.302 C 81.826 19.619, 81.998 18.864, 81.088 17.164 C 80.167 15.444, 80.311 14.904, 81.922 14.042 C 84.797 12.503, 86.472 12.759, 88.551 15.056 C 90.083 16.749, 90.199 17.452, 89.206 19.042 C 87.508 21.761, 87.698 22.232, 90 21 C 92.765 19.520, 92.517 15.768, 89.411 12.077 C 86.455 8.564, 84.404 8.150, 83.534 10.892 M 137.749 12.543 C 136.613 14.058, 136.366 15.108, 137.046 15.529 C 138.762 16.589, 141 15.209, 141 13.090 C 141 10.138, 139.713 9.921, 137.749 12.543 M 106.079 12.628 C 105.969 15.601, 103.518 17.347, 100.513 16.593 C 97.663 15.877, 97.216 17.104, 99.604 19.086 C 100.951 20.205, 101.684 20.144, 104.185 18.709 C 107.831 16.616, 109.662 16.576, 113.364 18.506 C 117.115 20.462, 117.716 20.399, 119.051 17.905 C 120.058 16.023, 119.953 15.880, 118.016 16.495 C 116.351 17.023, 115.735 16.703, 115.313 15.090 C 114.880 13.433, 113.980 13, 110.967 13 C 108.862 13, 106.942 12.442, 106.662 11.750 C 106.385 11.063, 106.122 11.457, 106.079 12.628 M 144.621 14.144 C 143.896 17.771, 144.273 18.493, 146.457 17.655 C 148.370 16.921, 148.471 13.636, 146.628 12.106 C 145.527 11.193, 145.131 11.595, 144.621 14.144 M 64.559 15.532 C 62.652 16.974, 62.655 17, 64.702 17 C 65.848 17, 67.045 16.325, 67.362 15.500 C 68.083 13.621, 67.070 13.632, 64.559 15.532 M 153.681 16.888 C 154.043 18.272, 153.451 19.016, 151.459 19.680 L 148.743 20.586 153.306 23.007 C 157.776 25.378, 157.912 25.389, 159.935 23.559 C 162.504 21.234, 162.939 16.976, 160.392 19.090 C 159.008 20.238, 158.509 20.046, 156.809 17.712 C 154.519 14.569, 152.968 14.160, 153.681 16.888 M 140.708 20.008 C 140.400 21.185, 139.257 22.382, 138.167 22.667 C 137.077 22.952, 135.960 24.043, 135.686 25.092 C 135.365 26.322, 134.306 27, 132.710 27 C 131.074 27, 130.056 27.679, 129.710 29 C 129.397 30.197, 128.346 31, 127.094 31 C 124.460 31, 124.343 33.015, 126.937 33.694 C 128.003 33.972, 129.314 35.463, 129.852 37.006 C 131.209 40.899, 134.507 41.741, 138.074 39.104 C 139.639 37.947, 141.371 37, 141.924 37 C 142.477 37, 143.395 36.130, 143.964 35.066 C 144.534 34.003, 146.202 32.991, 147.672 32.816 C 150.541 32.477, 152.221 30, 149.583 30 C 148.713 30, 148 29.520, 148 28.933 C 148 27.453, 143.984 28.788, 141.436 31.115 C 140.300 32.152, 138.584 33, 137.623 33 C 136.383 33, 135.965 33.655, 136.187 35.250 C 136.422 36.942, 135.941 37.579, 134.246 37.820 C 129.748 38.459, 130.555 35.221, 136.304 29.564 C 142.004 23.954, 143.908 20.508, 142.233 18.833 C 141.613 18.213, 141.068 18.632, 140.708 20.008 M 165.160 19.240 C 163.435 20.965, 163.750 22, 166 22 C 167.100 22, 168 21.352, 168 20.559 C 168 18.540, 166.539 17.861, 165.160 19.240 M 128.691 19.722 C 127.146 19.954, 125.635 20.787, 125.334 21.572 C 125.033 22.357, 123.757 23, 122.500 23 C 121.243 23, 119.955 23.675, 119.638 24.500 C 118.855 26.541, 116.758 26.384, 113.810 24.065 C 111.380 22.154, 111.315 22.154, 108.425 24.059 C 104.913 26.374, 101.695 26.542, 100 24.500 C 98.636 22.857, 92 22.413, 92 23.965 C 92 25.473, 95.467 26.952, 97.658 26.379 C 98.787 26.084, 100.200 26.536, 100.942 27.430 C 102.567 29.388, 103.996 29.404, 107.636 27.506 C 110.962 25.771, 113 25.579, 113 27 C 113 27.550, 113.900 28, 115 28 C 118.109 28, 117.742 32.776, 114.572 33.571 C 113.237 33.906, 111.901 34.815, 111.604 35.590 C 110.903 37.417, 108.631 37.378, 104.950 35.474 C 102.306 34.107, 102 34.107, 102 35.474 C 102 36.313, 102.852 37, 103.893 37 C 104.934 37, 106.045 37.675, 106.362 38.500 C 107.103 40.433, 110.396 40.433, 112 38.500 C 112.685 37.675, 114.326 37, 115.647 37 C 118.229 37, 120 33.922, 120 29.435 C 120 27.589, 120.545 26.990, 122.250 26.957 C 125.355 26.897, 132.430 22.684, 132.823 20.661 C 133.001 19.748, 132.776 19.067, 132.323 19.150 C 131.870 19.232, 130.236 19.490, 128.691 19.722 M 173 24.349 C 173 26.025, 169.600 27.489, 168.002 26.501 C 167.443 26.156, 166.716 26.577, 166.386 27.437 C 166.056 28.296, 164.989 29, 164.015 29 C 163.042 29, 161.652 29.714, 160.928 30.586 C 160.052 31.643, 158.690 31.988, 156.851 31.620 C 154.356 31.121, 154.167 31.277, 154.892 33.236 C 156.225 36.840, 158.838 37.830, 160.865 35.500 C 163.521 32.446, 168.887 29.934, 171.404 30.565 C 174.146 31.253, 176.283 28.992, 175.827 25.883 C 175.456 23.358, 173 22.025, 173 24.349 M 81.561 32.250 C 80.990 39.009, 80.470 40.823, 78.682 42.290 L 76.500 44.079 78.999 43.790 C 82.148 43.425, 84.281 37.653, 83.818 30.749 C 83.554 26.802, 83.790 25.999, 85.218 25.999 C 86.163 26, 87.607 27.238, 88.428 28.750 C 89.820 31.316, 89.923 31.352, 89.960 29.276 C 89.997 27.226, 85.851 24, 83.179 24 C 82.672 24, 81.945 27.712, 81.561 32.250 M 78.090 27.390 C 77.314 28.325, 76.110 28.872, 75.413 28.605 C 74.716 28.338, 73.608 28.767, 72.951 29.559 C 72.293 30.352, 70.814 31, 69.663 31 C 67.680 31, 67.661 31.090, 69.302 32.730 C 70.734 34.163, 71.372 34.249, 73.003 33.230 C 74.086 32.554, 75.893 32, 77.018 32 C 79.227 32, 80.368 30.138, 79.835 27.403 C 79.520 25.790, 79.417 25.789, 78.090 27.390 M 44.241 28.986 C 43.558 30.079, 43 32.156, 43 33.603 C 43 35.787, 42.642 36.140, 40.889 35.681 C 39.365 35.283, 38.638 35.667, 38.273 37.065 C 37.975 38.203, 36.902 39, 35.669 39 C 33.703 39, 33.677 39.106, 35.255 40.683 C 36.796 42.225, 37.088 42.232, 38.719 40.774 C 39.698 39.899, 41.625 39.029, 43 38.841 C 45.320 38.525, 45.509 38.086, 45.622 32.750 C 45.689 29.587, 45.685 27, 45.613 27 C 45.540 27, 44.923 27.894, 44.241 28.986 M 179.461 32.419 C 178.231 34.296, 177.386 34.786, 176.651 34.051 C 176.073 33.473, 174.227 33.014, 172.550 33.032 C 169.652 33.062, 169.597 33.137, 171.441 34.532 C 172.509 35.339, 173.951 36, 174.647 36 C 175.342 36, 177.533 37.101, 179.515 38.446 C 183.711 41.293, 186 40.851, 186 37.193 C 186 35.176, 185.733 34.867, 184.800 35.800 C 182.660 37.940, 180.950 37.262, 181.937 34.667 C 182.425 33.383, 182.463 31.749, 182.021 31.035 C 181.427 30.073, 180.763 30.433, 179.461 32.419 M 93.924 32.591 C 93.167 33.503, 91.654 33.976, 90.311 33.719 C 88.588 33.390, 88 33.736, 88 35.080 C 88 38.131, 90.197 38.485, 92.416 35.792 C 93.562 34.400, 95.153 33.060, 95.951 32.814 C 96.904 32.520, 97.028 32.136, 96.314 31.694 C 95.716 31.324, 94.640 31.728, 93.924 32.591 M 96.606 37.584 C 96.233 38.557, 96.456 39.015, 97.187 38.771 C 98.682 38.273, 99.505 36, 98.190 36 C 97.653 36, 96.941 36.713, 96.606 37.584 M 166 38.441 C 166 41.565, 164.052 42.792, 162.488 40.653 C 160.514 37.953, 160.039 38.770, 161.675 42.051 C 163.506 45.721, 165.012 45.469, 166.939 41.170 C 167.731 39.404, 168.856 38.116, 169.439 38.307 C 171.533 38.992, 171.069 43.931, 168.420 49.159 C 162.949 59.954, 163.386 64.749, 169.037 55.942 C 171.174 52.612, 172.769 51.081, 173.721 51.446 C 174.514 51.751, 175.352 52, 175.582 52 C 176.717 52, 175.795 58.383, 174.339 60.605 C 172.729 63.062, 172.770 63.232, 175.687 66.149 L 178.696 69.158 183.409 65.079 C 189.240 60.032, 191.439 59.724, 190.481 64.088 L 189.803 67.175 192.309 65.533 C 195.022 63.756, 196.440 64.691, 195.347 67.537 C 194.977 68.501, 187.552 72.669, 178.429 77.034 C 156.400 87.573, 149.282 91.891, 142.270 98.969 C 135.550 105.752, 132.421 111.558, 133.395 115.438 C 134.217 118.713, 137.453 118.829, 142.102 115.750 C 146.197 113.039, 151.032 103.900, 151.752 97.510 C 152.232 93.246, 152.550 92.852, 157.800 90.009 C 160.848 88.358, 163.562 87.228, 163.832 87.498 C 164.101 87.768, 163.740 90.413, 163.030 93.377 C 161.832 98.370, 162.105 101, 163.822 101 C 164.209 101, 164.970 99.987, 165.513 98.750 C 166.649 96.161, 172 94.933, 172 97.262 C 172 99.486, 166.436 107.285, 159.522 114.753 C 151.628 123.279, 142.825 128.332, 135.688 128.432 C 131.397 128.492, 130.489 128.109, 127.805 125.107 C 125.143 122.128, 124.833 121.171, 125.273 117.270 C 125.549 114.825, 128.187 107.362, 131.137 100.685 C 136.704 88.081, 139.362 84.614, 150.281 75.712 C 155.908 71.124, 156.805 68.422, 157.653 53.500 C 158.304 42.048, 156.903 39.277, 156 50.231 C 155.415 57.333, 153.048 59.848, 146.570 60.254 C 143.117 60.470, 142.564 60.197, 142.018 58 C 141.596 56.304, 141.038 58.394, 140.280 64.500 C 139.133 73.750, 134.145 88.711, 126.471 105.919 C 120.222 119.931, 120.784 126.341, 128.546 129.584 C 133.730 131.750, 144.520 131.411, 149.665 128.920 C 159.129 124.339, 170.273 111.344, 174.117 100.408 C 175.347 96.907, 176 92.324, 176 87.185 C 176 79.739, 176.135 79.260, 178.534 78.167 C 181.270 76.920, 181.267 76.917, 182.436 82.250 C 183.286 86.131, 185.342 85.679, 190.168 80.551 C 192.471 78.104, 194.725 76.330, 195.177 76.610 C 197.447 78.012, 195.809 83.878, 191.424 90.055 C 186.620 96.822, 183.743 101.928, 182.534 105.835 C 181.817 108.153, 181.831 108.157, 184.470 106.428 C 185.932 105.470, 189.833 101.376, 193.139 97.330 C 196.445 93.284, 199.566 90.232, 200.075 90.546 C 200.584 90.861, 200.995 90.754, 200.989 90.309 C 200.966 88.601, 198.081 80.058, 196.485 76.970 C 194.897 73.901, 194.905 72.429, 196.541 65.828 C 197.492 61.990, 192.888 59.681, 186.085 60.583 C 181.572 61.182, 181.066 61.030, 179.474 58.600 C 178.199 56.655, 177.919 54.908, 178.399 51.906 L 179.049 47.844 175.774 48.172 C 172.550 48.495, 172.499 48.436, 172.418 44.264 C 172.333 39.926, 169.923 36, 167.345 36 C 166.586 36, 166 37.063, 166 38.441 M 121.057 39.429 C 120.114 40.566, 118.644 41.028, 116.819 40.760 C 114.765 40.459, 113.870 40.833, 113.445 42.173 C 113.127 43.175, 111.760 44.273, 110.406 44.613 C 108.405 45.115, 108.168 45.497, 109.136 46.663 C 110.924 48.818, 114.442 47.909, 114.827 45.192 C 115.286 41.955, 117.438 43.032, 117.802 46.681 C 118.080 49.461, 117.689 49.887, 113.019 51.896 C 110.222 53.100, 108.190 54.498, 108.502 55.004 C 109.175 56.091, 113.019 54.769, 117.829 51.797 C 120.582 50.095, 121.090 49.259, 120.674 47.113 C 120.372 45.556, 120.775 43.823, 121.671 42.824 C 122.499 41.903, 123.023 40.370, 122.838 39.419 C 122.518 37.782, 122.422 37.782, 121.057 39.429 M 190 38.976 C 190 40.665, 184.003 46.120, 182.898 45.437 C 182.404 45.132, 182 44.234, 182 43.441 C 182 42.461, 180.881 42, 178.500 42 C 176.575 42, 175 42.450, 175 43 C 175 43.550, 175.884 44, 176.965 44 C 178.045 44, 179.411 44.900, 180 46 C 180.589 47.100, 181.759 48, 182.602 48 C 183.682 48, 184.040 48.810, 183.816 50.750 C 183.559 52.987, 183.066 53.439, 181.174 53.174 C 179.103 52.884, 178.970 53.075, 179.959 54.924 C 181.558 57.911, 191.379 57.967, 193.232 55 C 193.919 53.900, 195.273 53, 196.241 53 C 197.900 53, 198.732 50.066, 197.440 48.773 C 196.676 48.009, 191 50.917, 191 52.073 C 191 52.583, 190.100 53, 189 53 C 185.686 53, 186.263 47.461, 189.750 45.795 C 192.913 44.284, 193.809 40.916, 191.548 39.040 C 190.364 38.057, 190 38.042, 190 38.976 M 73.575 39.879 C 73.265 40.380, 73.684 41.048, 74.506 41.364 C 75.328 41.679, 76 41.528, 76 41.028 C 76 39.672, 74.223 38.830, 73.575 39.879 M 143.500 41 C 144.525 42.133, 146.580 43, 148.238 43 C 150.143 43, 151.017 43.437, 150.738 44.250 C 150.502 44.938, 148.890 45.496, 147.155 45.490 C 143.545 45.479, 143.423 45.731, 145.557 48.777 C 147.014 50.858, 146.982 51, 145.057 51 C 143.926 51, 143 51.440, 143 51.978 C 143 52.516, 144.944 52.872, 147.319 52.769 C 150.501 52.630, 152.089 51.983, 153.352 50.309 C 155.059 48.046, 155.053 48.039, 151.889 48.672 L 148.713 49.307 150.991 46.226 C 153.614 42.678, 153.118 39.511, 150.089 40.472 C 149.033 40.807, 147.879 40.613, 147.525 40.041 C 147.171 39.468, 145.714 39, 144.286 39 C 141.753 39, 141.734 39.049, 143.500 41 M 94.208 42.037 C 93.152 43.729, 93.152 44.068, 94.208 43.896 C 96.500 43.521, 99 45.164, 99 47.044 C 99 48.377, 98.118 48.958, 95.750 49.187 C 93.009 49.451, 92.449 49.947, 92.174 52.354 C 91.799 55.625, 95.233 60, 98.174 60 C 100.622 60, 100.502 58.294, 97.999 57.500 C 96.898 57.150, 95.533 55.995, 94.964 54.932 C 94.049 53.224, 94.274 53, 96.906 53 C 100.410 53, 100.718 52.615, 101.591 47.155 C 102.206 43.308, 102.088 43, 99.988 43 C 98.741 43, 97.221 42.317, 96.610 41.483 C 95.644 40.162, 95.333 40.234, 94.208 42.037 M 51.513 41.979 C 51.166 42.540, 50.109 43, 49.163 43 C 48.218 43, 46.649 43.929, 45.676 45.065 C 44.614 46.306, 42.983 47.010, 41.593 46.828 C 40.320 46.661, 38.532 47.143, 37.620 47.900 C 36.207 49.073, 35.707 49.054, 34.231 47.769 C 32.049 45.868, 26.773 44.814, 27.289 46.381 C 27.491 46.996, 28.634 47.644, 29.828 47.820 C 32.207 48.169, 32.590 50.030, 30.925 53.141 C 30.008 54.853, 29.232 55.050, 25.675 54.472 C 22.566 53.967, 21.777 54.085, 22.586 54.933 C 23.184 55.560, 25.278 56.333, 27.240 56.651 C 30.187 57.130, 31.003 56.863, 31.938 55.115 C 32.561 53.952, 33.951 53, 35.027 53 C 36.103 53, 37.535 52.116, 38.210 51.036 C 39.105 49.603, 40.096 49.237, 41.874 49.683 C 43.565 50.108, 44.706 49.755, 45.601 48.532 C 46.897 46.758, 51.241 46.710, 55.173 48.425 C 56.264 48.901, 57.568 48.432, 58.923 47.077 C 60.065 45.935, 61.620 45, 62.378 45 C 63.135 45, 64.315 44.325, 65 43.500 C 66.064 42.218, 65.766 42, 62.951 42 C 61.140 42, 58.792 42.784, 57.733 43.741 C 55.895 45.405, 55.727 45.382, 53.977 43.220 C 52.905 41.896, 51.883 41.381, 51.513 41.979 M 137.656 46.747 C 137.366 47.216, 138.039 48.168, 139.150 48.862 C 140.900 49.954, 141.125 49.892, 140.835 48.395 C 140.461 46.464, 138.469 45.432, 137.656 46.747 M 62.405 52.133 C 60.523 54.240, 60.525 54.258, 62.586 53.617 C 64.434 53.043, 65.253 54.198, 69.759 63.735 C 76.108 77.175, 77.671 82.735, 78.867 96.145 C 79.845 107.109, 80.386 108.574, 86.286 116.250 C 91.094 122.506, 92.379 121.442, 91.726 111.750 C 90.619 95.330, 81.928 73.337, 70.612 58.317 C 67.635 54.366, 65.455 50.879, 65.767 50.567 C 66.078 50.255, 65.878 50, 65.322 50 C 64.765 50, 63.453 50.960, 62.405 52.133 M 127.546 52.585 C 124.271 53.909, 119.931 56.614, 117.901 58.597 C 115.117 61.315, 113.692 62.037, 112.105 61.533 C 110.111 60.900, 110 61.211, 110 67.433 C 110 71.045, 110.427 74, 110.949 74 C 112.642 74, 117.026 67.350, 118.953 61.858 C 120.316 57.975, 121.407 56.412, 122.917 56.180 C 124.692 55.908, 125 56.379, 125 59.365 C 125 70.889, 115.892 97, 111.873 97 C 110.219 97, 104.005 70.293, 103.995 63.140 L 103.990 59.500 101.727 62.327 C 99.894 64.619, 98.961 65.028, 96.806 64.487 C 92.914 63.511, 90.830 60.672, 90.254 55.561 C 89.974 53.074, 89.352 51.283, 88.872 51.579 C 86.983 52.747, 88.258 57.145, 94.371 70.540 C 102.780 88.965, 104.500 95.607, 104.500 109.650 C 104.500 115.783, 104.802 120.616, 105.171 120.390 C 105.540 120.164, 106.635 117.846, 107.603 115.240 C 108.572 112.633, 113.289 102.850, 118.085 93.500 C 129.692 70.874, 131.662 65.305, 130.340 58.851 C 129.381 54.170, 129.460 53.830, 131.916 51.994 C 135.140 49.585, 134.874 49.621, 127.546 52.585 M 49 52.876 C 49 54.347, 52.452 56.811, 55 57.159 C 56.843 57.410, 57.580 58.189, 57.804 60.122 C 58.092 62.609, 57.868 62.749, 53.447 62.838 C 50.606 62.895, 47.265 62.156, 44.893 60.945 C 42.128 59.535, 41.004 59.327, 41.015 60.230 C 41.042 62.426, 42.739 64.315, 44.825 64.469 C 45.929 64.550, 47.583 65.239, 48.500 66 C 49.717 67.010, 50.617 67.101, 51.829 66.336 C 52.957 65.624, 54.009 65.613, 55.112 66.302 C 56.005 66.860, 57.470 67.034, 58.368 66.689 C 61.845 65.355, 59.307 56.458, 54.835 54.305 C 51.120 52.517, 49 51.998, 49 52.876 M 43.442 54.094 C 43.070 54.696, 41.713 54.987, 40.426 54.741 C 38.411 54.356, 38.224 54.550, 39.079 56.147 C 39.624 57.166, 40.404 58, 40.813 58 C 42.083 58, 46 54.936, 46 53.943 C 46 52.651, 44.271 52.753, 43.442 54.094 M 202.473 56.916 C 202.808 57.970, 202.655 59.095, 202.135 59.417 C 201.614 59.739, 201.411 60.856, 201.684 61.899 C 201.957 62.942, 201.710 64.673, 201.137 65.745 C 199.624 68.572, 201.492 70.189, 204.623 68.762 C 207.604 67.404, 207.833 64, 204.943 64 C 202.941 64, 202.933 63.922, 204.620 61.066 C 206.058 58.632, 206.132 57.864, 205.054 56.566 C 203.255 54.398, 201.739 54.604, 202.473 56.916 M 106 59 C 107.958 60.266, 109.282 60.266, 108.500 59 C 108.160 58.450, 107.121 58.007, 106.191 58.015 C 104.734 58.029, 104.707 58.165, 106 59 M 61 59.351 C 61 59.780, 61.480 61.028, 62.067 62.124 C 62.653 63.220, 62.841 65.446, 62.485 67.069 C 61.155 73.122, 56.931 74.519, 50.210 71.128 C 48.170 70.099, 45.487 68.944, 44.250 68.561 C 42.150 67.912, 42 68.161, 42 72.307 C 42 74.750, 42.693 78.712, 43.539 81.112 C 46.224 88.722, 45.824 91.857, 41.682 95.652 C 37.556 99.433, 32.751 100.160, 31.117 97.250 C 30.196 95.610, 30.093 95.607, 29.476 97.209 C 28.633 99.397, 30.613 105.442, 32.738 107.170 C 34.161 108.327, 34.284 108.260, 33.683 106.657 C 31.850 101.771, 31.779 100, 33.416 100 C 34.315 100, 35.482 101.137, 36.010 102.526 C 36.977 105.070, 39.558 106.775, 40.706 105.628 C 41.046 105.287, 40.771 103.794, 40.095 102.309 C 38.996 99.897, 39.111 99.421, 41.183 97.827 C 44.358 95.385, 44.679 95.498, 46.008 99.525 C 46.648 101.464, 48.249 104.331, 49.566 105.896 C 51.998 108.787, 57.591 111.743, 58.641 110.693 C 58.958 110.375, 56.716 105.453, 53.659 99.754 C 48.223 89.619, 43.552 75.925, 44.183 71.972 C 44.492 70.041, 44.592 70.035, 47.957 71.744 C 50.872 73.225, 51.624 74.343, 52.756 78.875 C 55.102 88.268, 62.834 98, 67.950 98 C 70.141 98, 68.311 75.853, 65.348 66.500 C 63.953 62.094, 61 57.240, 61 59.351 M 32.500 61.719 C 31.400 61.987, 29.815 62.812, 28.978 63.552 C 28.071 64.354, 25.346 64.849, 22.232 64.778 C 16.744 64.653, 15.367 65.167, 16.459 66.933 C 17.428 68.501, 25.188 68.172, 27.441 66.468 C 28.509 65.661, 30.405 65, 31.656 65 C 32.906 65, 34.411 64.100, 35 63 C 36.096 60.952, 35.952 60.878, 32.500 61.719 M 37.609 68.687 C 37.222 69.889, 35.914 71.066, 34.703 71.300 C 32.893 71.651, 32.996 71.752, 35.281 71.864 C 38.090 72.001, 39.589 70.239, 38.751 67.783 C 38.488 67.013, 38.032 67.374, 37.609 68.687 M 166.445 70.061 C 164.930 71.734, 164.835 72.280, 165.935 72.960 C 166.681 73.421, 167.015 74.519, 166.677 75.399 C 165.870 77.503, 166.474 77.423, 171.114 74.816 C 175.611 72.288, 175.805 71.677, 172.777 69.557 C 169.840 67.499, 168.679 67.592, 166.445 70.061 M 197 72.933 C 197 73.996, 197.871 75.142, 198.936 75.480 C 200 75.818, 201.073 76.860, 201.320 77.797 C 201.581 78.789, 201.816 78.351, 201.884 76.750 C 202.013 73.696, 203.605 73.249, 206.559 75.439 C 208.211 76.664, 208.314 77.183, 207.250 78.926 C 205.607 81.617, 205.627 81.672, 208.250 81.579 C 210.005 81.517, 210.500 82.051, 210.500 84 C 210.500 86.099, 209.969 86.551, 207.189 86.818 C 205.192 87.010, 204.033 87.605, 204.268 88.318 C 204.882 90.185, 209.206 90.383, 210.209 88.590 C 211.329 86.590, 213 86.522, 213 88.477 C 213 89.289, 211.879 90.688, 210.509 91.586 C 207.987 93.238, 207.977 95, 210.488 95 C 214.492 95, 216.716 86.669, 213.438 83.949 C 212.471 83.146, 211.983 81.414, 212.157 79.397 C 212.590 74.370, 209.818 71.926, 204.509 72.654 C 201.857 73.017, 200.004 72.816, 199.573 72.118 C 198.479 70.348, 197 70.816, 197 72.933 M 19.659 73.750 C 19.406 74.162, 18.878 77.088, 18.485 80.250 C 18.091 83.412, 17.626 86, 17.450 86 C 17.274 86, 15.992 85.567, 14.601 85.038 C 13.209 84.509, 11.837 84.454, 11.552 84.916 C 11.111 85.629, 15.407 87, 18.078 87 C 19.125 87, 20.987 80.405, 20.994 76.671 C 21 74.022, 21.200 73.885, 24.125 74.527 C 26.298 75.005, 27.042 74.877, 26.566 74.107 C 25.800 72.867, 20.371 72.586, 19.659 73.750 M 162 75.441 C 162 76.942, 163.795 78.538, 164.590 77.743 C 165.288 77.046, 163.907 74, 162.893 74 C 162.402 74, 162 74.648, 162 75.441 M 10 76.418 C 10 80.776, 13.464 82.555, 16 79.500 C 17.041 78.246, 16.892 78, 15.091 78 C 13.906 78, 12.678 77.325, 12.362 76.500 C 11.632 74.599, 10 74.542, 10 76.418 M 36 75.917 C 36 76.421, 36.517 77.006, 37.149 77.216 C 38.748 77.749, 37.518 83.637, 34.606 89.389 C 33.064 92.436, 32.782 93.597, 33.786 92.766 C 38.028 89.257, 41.008 75, 37.500 75 C 36.675 75, 36 75.412, 36 75.917 M 37.500 93 C 33.977 96.607, 33.810 97, 35.797 97 C 37.009 97, 38 96.377, 38 95.617 C 38 94.856, 38.900 93.998, 40 93.710 C 41.197 93.397, 42 92.346, 42 91.094 C 42 89.942, 41.866 89, 41.703 89 C 41.540 89, 39.648 90.800, 37.500 93 M 7 91.826 C 7 93.148, 11.495 97, 13.037 97 C 13.832 97, 13.014 95.692, 11.161 94 C 7.706 90.844, 7 90.475, 7 91.826 M 16.411 95.077 C 19.426 98.660, 19.860 103.997, 17.341 106.517 C 15.646 108.211, 10.424 108.192, 5.119 106.471 L 2.738 105.698 3.418 114.599 C 6.361 153.105, 22.544 182.461, 51.660 202.108 C 61.041 208.438, 68.512 211.877, 81.500 215.844 C 96.980 220.571, 102.720 221.369, 116.340 220.684 C 136.866 219.652, 155.489 213.677, 172.251 202.745 C 188.878 191.901, 201.077 177.960, 210.096 159.495 C 215.576 148.274, 220.502 130.773, 221.537 118.841 C 222.125 112.071, 220.876 96.542, 219.645 95.311 C 219.353 95.020, 217.782 95.731, 216.153 96.891 C 212.210 99.699, 208.472 99.563, 205.409 96.500 C 204.034 95.125, 202.817 94.003, 202.705 94.006 C 202.221 94.021, 202.349 104, 202.833 104 C 203.128 104, 205.982 103.267, 209.176 102.371 C 216.263 100.382, 217.419 101.063, 218.931 108.115 C 220.368 114.812, 220.208 121.849, 218.536 125.500 C 217.244 128.323, 217.158 127.980, 217.081 119.684 C 217.037 114.836, 216.534 109.998, 215.965 108.934 C 214.605 106.394, 208.881 106.399, 203.500 108.945 L 199.500 110.838 205 110.934 C 213.237 111.079, 213.408 111.319, 214.115 123.712 C 215.281 144.152, 212.284 155.008, 200.563 172.800 C 195.810 180.014, 176.664 199.275, 171.551 201.986 C 168.819 203.435, 168.662 203.373, 165.356 199.549 C 157.617 190.597, 153.839 177.509, 153.651 159 C 153.526 146.719, 154.330 141.612, 156.287 142.259 C 157.106 142.530, 157.697 146.698, 158.106 155.080 C 158.949 172.361, 162.515 185, 166.548 185 C 169.513 185, 170.179 179.872, 169.836 159.661 C 169.501 139.911, 169.489 139.814, 167.011 137.807 C 161.442 133.299, 148.253 137.984, 137.946 148.133 C 131.541 154.439, 127.027 162.405, 127.010 167.430 C 127.004 169.041, 128.154 175.185, 129.564 181.082 C 131.458 189.004, 133.258 193.694, 136.455 199.037 C 140.227 205.340, 140.669 206.669, 139.895 209.385 C 139.087 212.221, 136.636 215, 134.944 215 C 133.717 215, 122.875 187.969, 122.076 182.918 C 120.744 174.494, 119.695 176.029, 120.310 185.500 C 120.645 190.665, 121.982 198.091, 123.447 202.926 C 124.851 207.561, 126 212.623, 126 214.176 C 126 216.883, 125.801 217, 121.191 217 C 118.511 217, 115.523 216.350, 114.441 215.532 C 111.918 213.623, 108.569 213.609, 107 215.500 C 104.711 218.259, 104.001 217.049, 103.918 210.250 L 103.836 203.500 101.383 208.875 C 98.960 214.183, 98.884 214.243, 95.301 213.661 C 89.484 212.717, 89.285 211.617, 93.972 206.311 C 96.310 203.665, 99.518 199.250, 101.102 196.500 C 103.842 191.742, 103.976 190.943, 103.873 180 C 103.814 173.675, 103.442 164, 103.047 158.500 L 102.330 148.500 102.157 164 C 101.966 181.228, 100.751 190.933, 98.199 195.623 C 95.647 200.315, 87.106 212.817, 85.976 213.515 C 85.432 213.851, 83.682 213.198, 82.089 212.063 C 80.073 210.628, 77.640 210, 74.096 210 C 67.261 210, 67.426 208.161, 74.648 203.862 C 80.437 200.416, 85.286 195.243, 86.468 191.250 C 87.557 187.574, 85.370 188.658, 81.872 193.529 C 78.112 198.765, 69.421 204.904, 64.731 205.637 C 62.774 205.943, 60.752 205.585, 59.603 204.727 C 57.833 203.406, 58.302 202.902, 66.603 197.206 C 75.761 190.922, 79.951 185.946, 83.195 177.500 C 85.410 171.732, 86.247 166.271, 85.031 165.519 C 84.410 165.135, 84 166.084, 84 167.903 C 84 174.099, 79.958 182.231, 74.012 188 C 67.478 194.339, 59.026 199.663, 53.989 200.612 L 50.500 201.270 53.787 197.800 L 57.073 194.329 51.787 194.761 C 46.978 195.154, 46.120 194.891, 42.299 191.847 C 34.712 185.802, 24 171.187, 24 166.881 C 24 165.926, 22.538 164.001, 20.750 162.604 L 17.500 160.062 17.182 144.061 L 16.863 128.061 21.483 123.121 C 24.024 120.405, 25.700 117.933, 25.208 117.628 C 24.715 117.324, 22.663 117.530, 20.647 118.087 C 15.342 119.552, 13.625 122.839, 13.015 132.700 C 12.732 137.284, 12.060 141.139, 11.522 141.267 C 10.984 141.395, 9.461 137.233, 8.139 132.017 C 5.757 122.623, 5.752 122.501, 7.617 119.048 C 10.550 113.618, 15.266 110.938, 20.599 111.669 C 24.926 112.262, 25 112.224, 24.978 109.386 C 24.939 104.191, 17.817 92, 14.822 92 C 14.272 92, 14.987 93.385, 16.411 95.077 M 6 101.891 C 6 102.519, 7.586 103.789, 9.525 104.713 C 12.943 106.343, 13.117 106.328, 15.247 104.197 L 17.444 102 14.847 102 C 13.419 102, 10.844 101.719, 9.125 101.375 C 7.085 100.967, 6 101.146, 6 101.891 M 194 117.592 C 194 117.918, 194.900 119.329, 196 120.727 C 198.455 123.848, 198.541 128.795, 196.488 148.972 C 195.272 160.928, 195.245 163.673, 196.331 164.759 C 199.495 167.923, 202.999 163.346, 205.485 152.800 C 207.353 144.878, 207.579 119.979, 205.800 118.200 C 204.607 117.007, 194 116.461, 194 117.592 M 0.122 172.750 L 0 224 50.250 223.926 L 100.500 223.851 92 221.994 C 66.611 216.447, 46.105 205.501, 30.940 189.403 C 15.947 173.486, 4.315 149.251, 1.078 127.186 C 0.561 123.664, 0.197 141.005, 0.122 172.750 M 32.217 123.561 C 28.647 126.061, 27.117 130.171, 25.893 140.543 C 24.286 154.170, 25.062 161.682, 28.751 168.212 C 30.395 171.120, 32.135 173.500, 32.620 173.500 C 33.104 173.500, 33.771 164.500, 34.101 153.500 C 34.432 142.500, 35.220 131.928, 35.851 130.007 C 38.247 122.722, 36.879 120.295, 32.217 123.561 M 223.993 125.750 C 223.989 127.813, 223.108 133.161, 222.036 137.635 C 216.309 161.518, 198.809 187.824, 178.864 202.528 C 166.065 211.964, 147.571 219.606, 132 221.892 C 127.875 222.498, 123.375 223.159, 122 223.361 C 120.625 223.562, 143.238 223.789, 172.250 223.864 L 225 224 225 173 C 225 144.950, 224.775 122, 224.500 122 C 224.225 122, 223.997 123.688, 223.993 125.750 M 46.707 125.016 C 45.298 126.124, 43.678 128.487, 43.107 130.266 C 41.201 136.209, 40 150.293, 40 166.701 C 40 182.462, 40.068 182.998, 42.250 184.395 C 44.399 185.772, 46.997 186.365, 49.788 186.115 C 50.819 186.023, 50.950 181.068, 50.444 161.250 C 49.846 137.835, 49.924 136.184, 51.892 130.633 C 53.037 127.406, 53.728 124.368, 53.427 123.883 C 52.499 122.381, 49.390 122.905, 46.707 125.016 M 60.578 127.250 C 57.590 131.831, 56.761 139.375, 56.825 161.395 C 56.861 173.637, 57.304 183.704, 57.830 184.230 C 59.182 185.582, 64.418 182.626, 66.938 179.088 C 71.581 172.566, 72.956 167.876, 72.970 158.500 C 72.987 146.993, 71.366 132.813, 69.531 128.421 C 68.350 125.594, 67.576 125, 65.074 125 C 63.035 125, 61.567 125.735, 60.578 127.250 M 181.481 127.021 C 178.606 130.198, 177.176 139.713, 175.879 164.288 C 174.528 189.907, 174.664 190.607, 180.323 187.109 C 187.649 182.582, 188.715 177.814, 189.119 147.783 C 189.347 130.802, 189.200 128.878, 187.530 127.033 C 185.212 124.472, 183.790 124.469, 181.481 127.021 M 144.237 144.943 C 136.369 150.643, 131 160.666, 131 169.654 C 131 180.183, 137.286 198.219, 143.202 204.665 C 144.527 206.108, 144.968 207.525, 144.527 208.915 C 143.942 210.759, 144.272 211, 147.383 211 C 149.593 211, 151.239 210.395, 151.812 209.372 C 152.464 208.206, 152.930 208.077, 153.451 208.920 C 154.003 209.814, 154.514 209.818, 155.575 208.938 C 156.754 207.959, 156.663 207.386, 154.986 205.255 C 151.830 201.243, 152.682 200.300, 156.298 203.804 C 159.728 207.128, 161.985 207.896, 162.020 205.750 C 162.032 205.063, 160 200.450, 157.505 195.500 C 154.278 189.094, 152.692 184.482, 152.005 179.500 C 150.747 170.379, 150.733 152.419, 151.980 148.071 C 152.658 145.705, 152.621 144.248, 151.857 143.328 C 150.227 141.364, 148.744 141.678, 144.237 144.943" stroke="none" fill="#f6f8f7" fill-rule="evenodd"/><path d="M 98.176 1.003 C 80.332 3.520, 65.782 9.045, 50.611 19.065 C 28.166 33.889, 14.042 52.656, 5.130 79.500 C -2.644 102.916, -1.401 129.649, 8.581 153.764 C 24.306 191.752, 52.386 214.117, 94.996 222.591 C 109.323 225.440, 132.992 223.290, 149.610 217.629 C 172.713 209.759, 191.454 195.091, 205.726 173.708 C 215.890 158.480, 223.971 137.291, 223.993 125.809 C 223.997 123.779, 224.450 121.840, 225 121.500 C 225.572 121.147, 225.993 116.090, 225.985 109.691 C 225.976 103.291, 225.611 99.065, 225.132 99.820 C 224.587 100.680, 224.090 99.458, 223.707 96.320 C 222.143 83.514, 213.737 62.021, 205.276 49.193 C 199.819 40.920, 186.012 26.949, 177.426 21.014 C 166.976 13.789, 150.907 6.370, 139.337 3.427 C 128.269 0.611, 108.997 -0.524, 98.176 1.003 M 124.500 7 C 124.160 7.550, 122.671 8.010, 121.191 8.022 L 118.500 8.044 121 10 C 122.375 11.076, 124.625 11.997, 126 12.048 C 127.375 12.099, 129.400 12.497, 130.500 12.932 C 131.600 13.367, 133.063 13.512, 133.750 13.255 C 135.464 12.612, 135.326 8.516, 133.541 7.034 C 132.339 6.037, 131.968 6.279, 131.433 8.412 C 130.549 11.935, 127 12.005, 127 8.500 C 127 5.975, 125.639 5.158, 124.500 7 M 91 8.678 C 91 12.629, 94.662 14.195, 97.429 11.429 C 99.697 9.160, 99.364 8.208, 96.494 8.756 C 95.116 9.020, 93.316 8.677, 92.494 7.995 C 91.257 6.968, 91 7.085, 91 8.678 M 83.534 10.892 C 83.204 11.933, 82.049 13.016, 80.967 13.298 C 79.664 13.639, 79 14.668, 79 16.347 C 79 19.259, 77.869 20.271, 75.590 19.396 C 74.513 18.983, 74 17.529, 74 14.893 C 74 12.752, 73.550 11, 73 11 C 72.450 11, 72 11.900, 72 13 C 72 14.100, 71.520 15, 70.933 15 C 70.331 15, 70.134 15.847, 70.481 16.939 C 71.249 19.359, 67.882 21.402, 64.264 20.710 C 62.401 20.354, 61.625 20.716, 61.260 22.115 C 60.985 23.166, 59.885 24, 58.775 24 C 57.104 24, 56.893 23.558, 57.464 21.250 L 58.146 18.500 54.823 21.627 C 52.995 23.347, 50.825 24.982, 50 25.261 C 48.667 25.711, 48.667 25.827, 50 26.309 C 50.825 26.607, 53.638 27.137, 56.250 27.487 C 60.708 28.083, 61 28.305, 61 31.093 C 61 34.531, 58.328 36.169, 56.591 33.794 C 55.090 31.741, 48.841 31.916, 49.246 34 C 49.415 34.875, 50.659 35.519, 52.231 35.546 C 53.712 35.571, 55.242 35.908, 55.629 36.296 C 56.016 36.683, 57.825 37, 59.648 37 C 64.195 37, 65.217 33.335, 62.506 26.750 C 62.011 25.546, 62.249 25, 63.271 25 C 64.087 25, 65.275 24.374, 65.910 23.609 C 67.458 21.743, 72.955 21.024, 75.792 22.316 C 77.655 23.164, 78.471 22.974, 80.143 21.302 C 81.826 19.619, 81.998 18.864, 81.088 17.164 C 80.167 15.444, 80.311 14.904, 81.922 14.042 C 84.797 12.503, 86.472 12.759, 88.551 15.056 C 90.083 16.749, 90.199 17.452, 89.206 19.042 C 87.508 21.761, 87.698 22.232, 90 21 C 92.765 19.520, 92.517 15.768, 89.411 12.077 C 86.455 8.564, 84.404 8.150, 83.534 10.892 M 137.749 12.543 C 136.613 14.058, 136.366 15.108, 137.046 15.529 C 138.762 16.589, 141 15.209, 141 13.090 C 141 10.138, 139.713 9.921, 137.749 12.543 M 106.079 12.628 C 105.969 15.601, 103.518 17.347, 100.513 16.593 C 97.663 15.877, 97.216 17.104, 99.604 19.086 C 100.951 20.205, 101.684 20.144, 104.185 18.709 C 107.831 16.616, 109.662 16.576, 113.364 18.506 C 117.115 20.462, 117.716 20.399, 119.051 17.905 C 120.058 16.023, 119.953 15.880, 118.016 16.495 C 116.351 17.023, 115.735 16.703, 115.313 15.090 C 114.880 13.433, 113.980 13, 110.967 13 C 108.862 13, 106.942 12.442, 106.662 11.750 C 106.385 11.063, 106.122 11.457, 106.079 12.628 M 144.621 14.144 C 143.896 17.771, 144.273 18.493, 146.457 17.655 C 148.370 16.921, 148.471 13.636, 146.628 12.106 C 145.527 11.193, 145.131 11.595, 144.621 14.144 M 64.559 15.532 C 62.652 16.974, 62.655 17, 64.702 17 C 65.848 17, 67.045 16.325, 67.362 15.500 C 68.083 13.621, 67.070 13.632, 64.559 15.532 M 153.681 16.888 C 154.043 18.272, 153.451 19.016, 151.459 19.680 L 148.743 20.586 153.306 23.007 C 157.776 25.378, 157.912 25.389, 159.935 23.559 C 162.504 21.234, 162.939 16.976, 160.392 19.090 C 159.008 20.238, 158.509 20.046, 156.809 17.712 C 154.519 14.569, 152.968 14.160, 153.681 16.888 M 140.708 20.008 C 140.400 21.185, 139.257 22.382, 138.167 22.667 C 137.077 22.952, 135.960 24.043, 135.686 25.092 C 135.365 26.322, 134.306 27, 132.710 27 C 131.074 27, 130.056 27.679, 129.710 29 C 129.397 30.197, 128.346 31, 127.094 31 C 124.460 31, 124.343 33.015, 126.937 33.694 C 128.003 33.972, 129.314 35.463, 129.852 37.006 C 131.209 40.899, 134.507 41.741, 138.074 39.104 C 139.639 37.947, 141.371 37, 141.924 37 C 142.477 37, 143.395 36.130, 143.964 35.066 C 144.534 34.003, 146.202 32.991, 147.672 32.816 C 150.541 32.477, 152.221 30, 149.583 30 C 148.713 30, 148 29.520, 148 28.933 C 148 27.453, 143.984 28.788, 141.436 31.115 C 140.300 32.152, 138.584 33, 137.623 33 C 136.383 33, 135.965 33.655, 136.187 35.250 C 136.422 36.942, 135.941 37.579, 134.246 37.820 C 129.748 38.459, 130.555 35.221, 136.304 29.564 C 142.004 23.954, 143.908 20.508, 142.233 18.833 C 141.613 18.213, 141.068 18.632, 140.708 20.008 M 165.160 19.240 C 163.435 20.965, 163.750 22, 166 22 C 167.100 22, 168 21.352, 168 20.559 C 168 18.540, 166.539 17.861, 165.160 19.240 M 128.691 19.722 C 127.146 19.954, 125.635 20.787, 125.334 21.572 C 125.033 22.357, 123.757 23, 122.500 23 C 121.243 23, 119.955 23.675, 119.638 24.500 C 118.855 26.541, 116.758 26.384, 113.810 24.065 C 111.380 22.154, 111.315 22.154, 108.425 24.059 C 104.913 26.374, 101.695 26.542, 100 24.500 C 98.636 22.857, 92 22.413, 92 23.965 C 92 25.473, 95.467 26.952, 97.658 26.379 C 98.787 26.084, 100.200 26.536, 100.942 27.430 C 102.567 29.388, 103.996 29.404, 107.636 27.506 C 110.962 25.771, 113 25.579, 113 27 C 113 27.550, 113.900 28, 115 28 C 118.109 28, 117.742 32.776, 114.572 33.571 C 113.237 33.906, 111.901 34.815, 111.604 35.590 C 110.903 37.417, 108.631 37.378, 104.950 35.474 C 102.306 34.107, 102 34.107, 102 35.474 C 102 36.313, 102.852 37, 103.893 37 C 104.934 37, 106.045 37.675, 106.362 38.500 C 107.103 40.433, 110.396 40.433, 112 38.500 C 112.685 37.675, 114.326 37, 115.647 37 C 118.229 37, 120 33.922, 120 29.435 C 120 27.589, 120.545 26.990, 122.250 26.957 C 125.355 26.897, 132.430 22.684, 132.823 20.661 C 133.001 19.748, 132.776 19.067, 132.323 19.150 C 131.870 19.232, 130.236 19.490, 128.691 19.722 M 173 24.349 C 173 26.025, 169.600 27.489, 168.002 26.501 C 167.443 26.156, 166.716 26.577, 166.386 27.437 C 166.056 28.296, 164.989 29, 164.015 29 C 163.042 29, 161.652 29.714, 160.928 30.586 C 160.052 31.643, 158.690 31.988, 156.851 31.620 C 154.356 31.121, 154.167 31.277, 154.892 33.236 C 156.225 36.840, 158.838 37.830, 160.865 35.500 C 163.521 32.446, 168.887 29.934, 171.404 30.565 C 174.146 31.253, 176.283 28.992, 175.827 25.883 C 175.456 23.358, 173 22.025, 173 24.349 M 81.561 32.250 C 80.990 39.009, 80.470 40.823, 78.682 42.290 L 76.500 44.079 78.999 43.790 C 82.148 43.425, 84.281 37.653, 83.818 30.749 C 83.554 26.802, 83.790 25.999, 85.218 25.999 C 86.163 26, 87.607 27.238, 88.428 28.750 C 89.820 31.316, 89.923 31.352, 89.960 29.276 C 89.997 27.226, 85.851 24, 83.179 24 C 82.672 24, 81.945 27.712, 81.561 32.250 M 78.090 27.390 C 77.314 28.325, 76.110 28.872, 75.413 28.605 C 74.716 28.338, 73.608 28.767, 72.951 29.559 C 72.293 30.352, 70.814 31, 69.663 31 C 67.680 31, 67.661 31.090, 69.302 32.730 C 70.734 34.163, 71.372 34.249, 73.003 33.230 C 74.086 32.554, 75.893 32, 77.018 32 C 79.227 32, 80.368 30.138, 79.835 27.403 C 79.520 25.790, 79.417 25.789, 78.090 27.390 M 44.241 28.986 C 43.558 30.079, 43 32.156, 43 33.603 C 43 35.787, 42.642 36.140, 40.889 35.681 C 39.365 35.283, 38.638 35.667, 38.273 37.065 C 37.975 38.203, 36.902 39, 35.669 39 C 33.703 39, 33.677 39.106, 35.255 40.683 C 36.796 42.225, 37.088 42.232, 38.719 40.774 C 39.698 39.899, 41.625 39.029, 43 38.841 C 45.320 38.525, 45.509 38.086, 45.622 32.750 C 45.689 29.587, 45.685 27, 45.613 27 C 45.540 27, 44.923 27.894, 44.241 28.986 M 179.461 32.419 C 178.231 34.296, 177.386 34.786, 176.651 34.051 C 176.073 33.473, 174.227 33.014, 172.550 33.032 C 169.652 33.062, 169.597 33.137, 171.441 34.532 C 172.509 35.339, 173.951 36, 174.647 36 C 175.342 36, 177.533 37.101, 179.515 38.446 C 183.711 41.293, 186 40.851, 186 37.193 C 186 35.176, 185.733 34.867, 184.800 35.800 C 182.660 37.940, 180.950 37.262, 181.937 34.667 C 182.425 33.383, 182.463 31.749, 182.021 31.035 C 181.427 30.073, 180.763 30.433, 179.461 32.419 M 93.924 32.591 C 93.167 33.503, 91.654 33.976, 90.311 33.719 C 88.588 33.390, 88 33.736, 88 35.080 C 88 38.131, 90.197 38.485, 92.416 35.792 C 93.562 34.400, 95.153 33.060, 95.951 32.814 C 96.904 32.520, 97.028 32.136, 96.314 31.694 C 95.716 31.324, 94.640 31.728, 93.924 32.591 M 96.606 37.584 C 96.233 38.557, 96.456 39.015, 97.187 38.771 C 98.682 38.273, 99.505 36, 98.190 36 C 97.653 36, 96.941 36.713, 96.606 37.584 M 166 38.441 C 166 41.565, 164.052 42.792, 162.488 40.653 C 160.514 37.953, 160.039 38.770, 161.675 42.051 C 163.506 45.721, 165.012 45.469, 166.939 41.170 C 167.731 39.404, 168.856 38.116, 169.439 38.307 C 171.533 38.992, 171.069 43.931, 168.420 49.159 C 162.949 59.954, 163.386 64.749, 169.037 55.942 C 171.174 52.612, 172.769 51.081, 173.721 51.446 C 174.514 51.751, 175.352 52, 175.582 52 C 176.717 52, 175.795 58.383, 174.339 60.605 C 172.729 63.062, 172.770 63.232, 175.687 66.149 L 178.696 69.158 183.409 65.079 C 189.240 60.032, 191.439 59.724, 190.481 64.088 L 189.803 67.175 192.309 65.533 C 195.022 63.756, 196.440 64.691, 195.347 67.537 C 194.977 68.501, 187.552 72.669, 178.429 77.034 C 156.400 87.573, 149.282 91.891, 142.270 98.969 C 135.550 105.752, 132.421 111.558, 133.395 115.438 C 134.217 118.713, 137.453 118.829, 142.102 115.750 C 146.197 113.039, 151.032 103.900, 151.752 97.510 C 152.232 93.246, 152.550 92.852, 157.800 90.009 C 160.848 88.358, 163.562 87.228, 163.832 87.498 C 164.101 87.768, 163.740 90.413, 163.030 93.377 C 161.832 98.370, 162.105 101, 163.822 101 C 164.209 101, 164.970 99.987, 165.513 98.750 C 166.649 96.161, 172 94.933, 172 97.262 C 172 99.486, 166.436 107.285, 159.522 114.753 C 151.628 123.279, 142.825 128.332, 135.688 128.432 C 131.397 128.492, 130.489 128.109, 127.805 125.107 C 125.143 122.128, 124.833 121.171, 125.273 117.270 C 125.549 114.825, 128.187 107.362, 131.137 100.685 C 136.704 88.081, 139.362 84.614, 150.281 75.712 C 155.908 71.124, 156.805 68.422, 157.653 53.500 C 158.304 42.048, 156.903 39.277, 156 50.231 C 155.415 57.333, 153.048 59.848, 146.570 60.254 C 143.117 60.470, 142.564 60.197, 142.018 58 C 141.596 56.304, 141.038 58.394, 140.280 64.500 C 139.133 73.750, 134.145 88.711, 126.471 105.919 C 120.222 119.931, 120.784 126.341, 128.546 129.584 C 133.730 131.750, 144.520 131.411, 149.665 128.920 C 159.129 124.339, 170.273 111.344, 174.117 100.408 C 175.347 96.907, 176 92.324, 176 87.185 C 176 79.739, 176.135 79.260, 178.534 78.167 C 181.270 76.920, 181.267 76.917, 182.436 82.250 C 183.286 86.131, 185.342 85.679, 190.168 80.551 C 192.471 78.104, 194.725 76.330, 195.177 76.610 C 197.447 78.012, 195.809 83.878, 191.424 90.055 C 186.620 96.822, 183.743 101.928, 182.534 105.835 C 181.817 108.153, 181.831 108.157, 184.470 106.428 C 185.932 105.470, 189.833 101.376, 193.139 97.330 C 196.445 93.284, 199.566 90.232, 200.075 90.546 C 200.584 90.861, 200.995 90.754, 200.989 90.309 C 200.966 88.601, 198.081 80.058, 196.485 76.970 C 194.897 73.901, 194.905 72.429, 196.541 65.828 C 197.492 61.990, 192.888 59.681, 186.085 60.583 C 181.572 61.182, 181.066 61.030, 179.474 58.600 C 178.199 56.655, 177.919 54.908, 178.399 51.906 L 179.049 47.844 175.774 48.172 C 172.550 48.495, 172.499 48.436, 172.418 44.264 C 172.333 39.926, 169.923 36, 167.345 36 C 166.586 36, 166 37.063, 166 38.441 M 121.057 39.429 C 120.114 40.566, 118.644 41.028, 116.819 40.760 C 114.765 40.459, 113.870 40.833, 113.445 42.173 C 113.127 43.175, 111.760 44.273, 110.406 44.613 C 108.405 45.115, 108.168 45.497, 109.136 46.663 C 110.924 48.818, 114.442 47.909, 114.827 45.192 C 115.286 41.955, 117.438 43.032, 117.802 46.681 C 118.080 49.461, 117.689 49.887, 113.019 51.896 C 110.222 53.100, 108.190 54.498, 108.502 55.004 C 109.175 56.091, 113.019 54.769, 117.829 51.797 C 120.582 50.095, 121.090 49.259, 120.674 47.113 C 120.372 45.556, 120.775 43.823, 121.671 42.824 C 122.499 41.903, 123.023 40.370, 122.838 39.419 C 122.518 37.782, 122.422 37.782, 121.057 39.429 M 190 38.976 C 190 40.665, 184.003 46.120, 182.898 45.437 C 182.404 45.132, 182 44.234, 182 43.441 C 182 42.461, 180.881 42, 178.500 42 C 176.575 42, 175 42.450, 175 43 C 175 43.550, 175.884 44, 176.965 44 C 178.045 44, 179.411 44.900, 180 46 C 180.589 47.100, 181.759 48, 182.602 48 C 183.682 48, 184.040 48.810, 183.816 50.750 C 183.559 52.987, 183.066 53.439, 181.174 53.174 C 179.103 52.884, 178.970 53.075, 179.959 54.924 C 181.558 57.911, 191.379 57.967, 193.232 55 C 193.919 53.900, 195.273 53, 196.241 53 C 197.900 53, 198.732 50.066, 197.440 48.773 C 196.676 48.009, 191 50.917, 191 52.073 C 191 52.583, 190.100 53, 189 53 C 185.686 53, 186.263 47.461, 189.750 45.795 C 192.913 44.284, 193.809 40.916, 191.548 39.040 C 190.364 38.057, 190 38.042, 190 38.976 M 73.575 39.879 C 73.265 40.380, 73.684 41.048, 74.506 41.364 C 75.328 41.679, 76 41.528, 76 41.028 C 76 39.672, 74.223 38.830, 73.575 39.879 M 143.500 41 C 144.525 42.133, 146.580 43, 148.238 43 C 150.143 43, 151.017 43.437, 150.738 44.250 C 150.502 44.938, 148.890 45.496, 147.155 45.490 C 143.545 45.479, 143.423 45.731, 145.557 48.777 C 147.014 50.858, 146.982 51, 145.057 51 C 143.926 51, 143 51.440, 143 51.978 C 143 52.516, 144.944 52.872, 147.319 52.769 C 150.501 52.630, 152.089 51.983, 153.352 50.309 C 155.059 48.046, 155.053 48.039, 151.889 48.672 L 148.713 49.307 150.991 46.226 C 153.614 42.678, 153.118 39.511, 150.089 40.472 C 149.033 40.807, 147.879 40.613, 147.525 40.041 C 147.171 39.468, 145.714 39, 144.286 39 C 141.753 39, 141.734 39.049, 143.500 41 M 94.208 42.037 C 93.152 43.729, 93.152 44.068, 94.208 43.896 C 96.500 43.521, 99 45.164, 99 47.044 C 99 48.377, 98.118 48.958, 95.750 49.187 C 93.009 49.451, 92.449 49.947, 92.174 52.354 C 91.799 55.625, 95.233 60, 98.174 60 C 100.622 60, 100.502 58.294, 97.999 57.500 C 96.898 57.150, 95.533 55.995, 94.964 54.932 C 94.049 53.224, 94.274 53, 96.906 53 C 100.410 53, 100.718 52.615, 101.591 47.155 C 102.206 43.308, 102.088 43, 99.988 43 C 98.741 43, 97.221 42.317, 96.610 41.483 C 95.644 40.162, 95.333 40.234, 94.208 42.037 M 51.513 41.979 C 51.166 42.540, 50.109 43, 49.163 43 C 48.218 43, 46.649 43.929, 45.676 45.065 C 44.614 46.306, 42.983 47.010, 41.593 46.828 C 40.320 46.661, 38.532 47.143, 37.620 47.900 C 36.207 49.073, 35.707 49.054, 34.231 47.769 C 32.049 45.868, 26.773 44.814, 27.289 46.381 C 27.491 46.996, 28.634 47.644, 29.828 47.820 C 32.207 48.169, 32.590 50.030, 30.925 53.141 C 30.008 54.853, 29.232 55.050, 25.675 54.472 C 22.566 53.967, 21.777 54.085, 22.586 54.933 C 23.184 55.560, 25.278 56.333, 27.240 56.651 C 30.187 57.130, 31.003 56.863, 31.938 55.115 C 32.561 53.952, 33.951 53, 35.027 53 C 36.103 53, 37.535 52.116, 38.210 51.036 C 39.105 49.603, 40.096 49.237, 41.874 49.683 C 43.565 50.108, 44.706 49.755, 45.601 48.532 C 46.897 46.758, 51.241 46.710, 55.173 48.425 C 56.264 48.901, 57.568 48.432, 58.923 47.077 C 60.065 45.935, 61.620 45, 62.378 45 C 63.135 45, 64.315 44.325, 65 43.500 C 66.064 42.218, 65.766 42, 62.951 42 C 61.140 42, 58.792 42.784, 57.733 43.741 C 55.895 45.405, 55.727 45.382, 53.977 43.220 C 52.905 41.896, 51.883 41.381, 51.513 41.979 M 137.656 46.747 C 137.366 47.216, 138.039 48.168, 139.150 48.862 C 140.900 49.954, 141.125 49.892, 140.835 48.395 C 140.461 46.464, 138.469 45.432, 137.656 46.747 M 62.405 52.133 C 60.523 54.240, 60.525 54.258, 62.586 53.617 C 64.434 53.043, 65.253 54.198, 69.759 63.735 C 76.108 77.175, 77.671 82.735, 78.867 96.145 C 79.845 107.109, 80.386 108.574, 86.286 116.250 C 91.094 122.506, 92.379 121.442, 91.726 111.750 C 90.619 95.330, 81.928 73.337, 70.612 58.317 C 67.635 54.366, 65.455 50.879, 65.767 50.567 C 66.078 50.255, 65.878 50, 65.322 50 C 64.765 50, 63.453 50.960, 62.405 52.133 M 127.546 52.585 C 124.271 53.909, 119.931 56.614, 117.901 58.597 C 115.117 61.315, 113.692 62.037, 112.105 61.533 C 110.111 60.900, 110 61.211, 110 67.433 C 110 71.045, 110.427 74, 110.949 74 C 112.642 74, 117.026 67.350, 118.953 61.858 C 120.316 57.975, 121.407 56.412, 122.917 56.180 C 124.692 55.908, 125 56.379, 125 59.365 C 125 70.889, 115.892 97, 111.873 97 C 110.219 97, 104.005 70.293, 103.995 63.140 L 103.990 59.500 101.727 62.327 C 99.894 64.619, 98.961 65.028, 96.806 64.487 C 92.914 63.511, 90.830 60.672, 90.254 55.561 C 89.974 53.074, 89.352 51.283, 88.872 51.579 C 86.983 52.747, 88.258 57.145, 94.371 70.540 C 102.780 88.965, 104.500 95.607, 104.500 109.650 C 104.500 115.783, 104.802 120.616, 105.171 120.390 C 105.540 120.164, 106.635 117.846, 107.603 115.240 C 108.572 112.633, 113.289 102.850, 118.085 93.500 C 129.692 70.874, 131.662 65.305, 130.340 58.851 C 129.381 54.170, 129.460 53.830, 131.916 51.994 C 135.140 49.585, 134.874 49.621, 127.546 52.585 M 49 52.876 C 49 54.347, 52.452 56.811, 55 57.159 C 56.843 57.410, 57.580 58.189, 57.804 60.122 C 58.092 62.609, 57.868 62.749, 53.447 62.838 C 50.606 62.895, 47.265 62.156, 44.893 60.945 C 42.128 59.535, 41.004 59.327, 41.015 60.230 C 41.042 62.426, 42.739 64.315, 44.825 64.469 C 45.929 64.550, 47.583 65.239, 48.500 66 C 49.717 67.010, 50.617 67.101, 51.829 66.336 C 52.957 65.624, 54.009 65.613, 55.112 66.302 C 56.005 66.860, 57.470 67.034, 58.368 66.689 C 61.845 65.355, 59.307 56.458, 54.835 54.305 C 51.120 52.517, 49 51.998, 49 52.876 M 43.442 54.094 C 43.070 54.696, 41.713 54.987, 40.426 54.741 C 38.411 54.356, 38.224 54.550, 39.079 56.147 C 39.624 57.166, 40.404 58, 40.813 58 C 42.083 58, 46 54.936, 46 53.943 C 46 52.651, 44.271 52.753, 43.442 54.094 M 202.473 56.916 C 202.808 57.970, 202.655 59.095, 202.135 59.417 C 201.614 59.739, 201.411 60.856, 201.684 61.899 C 201.957 62.942, 201.710 64.673, 201.137 65.745 C 199.624 68.572, 201.492 70.189, 204.623 68.762 C 207.604 67.404, 207.833 64, 204.943 64 C 202.941 64, 202.933 63.922, 204.620 61.066 C 206.058 58.632, 206.132 57.864, 205.054 56.566 C 203.255 54.398, 201.739 54.604, 202.473 56.916 M 106 59 C 107.958 60.266, 109.282 60.266, 108.500 59 C 108.160 58.450, 107.121 58.007, 106.191 58.015 C 104.734 58.029, 104.707 58.165, 106 59 M 61 59.351 C 61 59.780, 61.480 61.028, 62.067 62.124 C 62.653 63.220, 62.841 65.446, 62.485 67.069 C 61.155 73.122, 56.931 74.519, 50.210 71.128 C 48.170 70.099, 45.487 68.944, 44.250 68.561 C 42.150 67.912, 42 68.161, 42 72.307 C 42 74.750, 42.693 78.712, 43.539 81.112 C 46.224 88.722, 45.824 91.857, 41.682 95.652 C 37.556 99.433, 32.751 100.160, 31.117 97.250 C 30.196 95.610, 30.093 95.607, 29.476 97.209 C 28.633 99.397, 30.613 105.442, 32.738 107.170 C 34.161 108.327, 34.284 108.260, 33.683 106.657 C 31.850 101.771, 31.779 100, 33.416 100 C 34.315 100, 35.482 101.137, 36.010 102.526 C 36.977 105.070, 39.558 106.775, 40.706 105.628 C 41.046 105.287, 40.771 103.794, 40.095 102.309 C 38.996 99.897, 39.111 99.421, 41.183 97.827 C 44.358 95.385, 44.679 95.498, 46.008 99.525 C 46.648 101.464, 48.249 104.331, 49.566 105.896 C 51.998 108.787, 57.591 111.743, 58.641 110.693 C 58.958 110.375, 56.716 105.453, 53.659 99.754 C 48.223 89.619, 43.552 75.925, 44.183 71.972 C 44.492 70.041, 44.592 70.035, 47.957 71.744 C 50.872 73.225, 51.624 74.343, 52.756 78.875 C 55.102 88.268, 62.834 98, 67.950 98 C 70.141 98, 68.311 75.853, 65.348 66.500 C 63.953 62.094, 61 57.240, 61 59.351 M 32.500 61.719 C 31.400 61.987, 29.815 62.812, 28.978 63.552 C 28.071 64.354, 25.346 64.849, 22.232 64.778 C 16.744 64.653, 15.367 65.167, 16.459 66.933 C 17.428 68.501, 25.188 68.172, 27.441 66.468 C 28.509 65.661, 30.405 65, 31.656 65 C 32.906 65, 34.411 64.100, 35 63 C 36.096 60.952, 35.952 60.878, 32.500 61.719 M 37.609 68.687 C 37.222 69.889, 35.914 71.066, 34.703 71.300 C 32.893 71.651, 32.996 71.752, 35.281 71.864 C 38.090 72.001, 39.589 70.239, 38.751 67.783 C 38.488 67.013, 38.032 67.374, 37.609 68.687 M 166.445 70.061 C 164.930 71.734, 164.835 72.280, 165.935 72.960 C 166.681 73.421, 167.015 74.519, 166.677 75.399 C 165.870 77.503, 166.474 77.423, 171.114 74.816 C 175.611 72.288, 175.805 71.677, 172.777 69.557 C 169.840 67.499, 168.679 67.592, 166.445 70.061 M 197 72.933 C 197 73.996, 197.871 75.142, 198.936 75.480 C 200 75.818, 201.073 76.860, 201.320 77.797 C 201.581 78.789, 201.816 78.351, 201.884 76.750 C 202.013 73.696, 203.605 73.249, 206.559 75.439 C 208.211 76.664, 208.314 77.183, 207.250 78.926 C 205.607 81.617, 205.627 81.672, 208.250 81.579 C 210.005 81.517, 210.500 82.051, 210.500 84 C 210.500 86.099, 209.969 86.551, 207.189 86.818 C 205.192 87.010, 204.033 87.605, 204.268 88.318 C 204.882 90.185, 209.206 90.383, 210.209 88.590 C 211.329 86.590, 213 86.522, 213 88.477 C 213 89.289, 211.879 90.688, 210.509 91.586 C 207.987 93.238, 207.977 95, 210.488 95 C 214.492 95, 216.716 86.669, 213.438 83.949 C 212.471 83.146, 211.983 81.414, 212.157 79.397 C 212.590 74.370, 209.818 71.926, 204.509 72.654 C 201.857 73.017, 200.004 72.816, 199.573 72.118 C 198.479 70.348, 197 70.816, 197 72.933 M 19.659 73.750 C 19.406 74.162, 18.878 77.088, 18.485 80.250 C 18.091 83.412, 17.626 86, 17.450 86 C 17.274 86, 15.992 85.567, 14.601 85.038 C 13.209 84.509, 11.837 84.454, 11.552 84.916 C 11.111 85.629, 15.407 87, 18.078 87 C 19.125 87, 20.987 80.405, 20.994 76.671 C 21 74.022, 21.200 73.885, 24.125 74.527 C 26.298 75.005, 27.042 74.877, 26.566 74.107 C 25.800 72.867, 20.371 72.586, 19.659 73.750 M 162 75.441 C 162 76.942, 163.795 78.538, 164.590 77.743 C 165.288 77.046, 163.907 74, 162.893 74 C 162.402 74, 162 74.648, 162 75.441 M 10 76.418 C 10 80.776, 13.464 82.555, 16 79.500 C 17.041 78.246, 16.892 78, 15.091 78 C 13.906 78, 12.678 77.325, 12.362 76.500 C 11.632 74.599, 10 74.542, 10 76.418 M 36 75.917 C 36 76.421, 36.517 77.006, 37.149 77.216 C 38.748 77.749, 37.518 83.637, 34.606 89.389 C 33.064 92.436, 32.782 93.597, 33.786 92.766 C 38.028 89.257, 41.008 75, 37.500 75 C 36.675 75, 36 75.412, 36 75.917 M 37.500 93 C 33.977 96.607, 33.810 97, 35.797 97 C 37.009 97, 38 96.377, 38 95.617 C 38 94.856, 38.900 93.998, 40 93.710 C 41.197 93.397, 42 92.346, 42 91.094 C 42 89.942, 41.866 89, 41.703 89 C 41.540 89, 39.648 90.800, 37.500 93 M 7 91.826 C 7 93.148, 11.495 97, 13.037 97 C 13.832 97, 13.014 95.692, 11.161 94 C 7.706 90.844, 7 90.475, 7 91.826 M 16.411 95.077 C 19.426 98.660, 19.860 103.997, 17.341 106.517 C 15.646 108.211, 10.424 108.192, 5.119 106.471 L 2.738 105.698 3.418 114.599 C 6.361 153.105, 22.544 182.461, 51.660 202.108 C 61.041 208.438, 68.512 211.877, 81.500 215.844 C 96.980 220.571, 102.720 221.369, 116.340 220.684 C 136.866 219.652, 155.489 213.677, 172.251 202.745 C 188.878 191.901, 201.077 177.960, 210.096 159.495 C 215.576 148.274, 220.502 130.773, 221.537 118.841 C 222.125 112.071, 220.876 96.542, 219.645 95.311 C 219.353 95.020, 217.782 95.731, 216.153 96.891 C 212.210 99.699, 208.472 99.563, 205.409 96.500 C 204.034 95.125, 202.817 94.003, 202.705 94.006 C 202.221 94.021, 202.349 104, 202.833 104 C 203.128 104, 205.982 103.267, 209.176 102.371 C 216.263 100.382, 217.419 101.063, 218.931 108.115 C 220.368 114.812, 220.208 121.849, 218.536 125.500 C 217.244 128.323, 217.158 127.980, 217.081 119.684 C 217.037 114.836, 216.534 109.998, 215.965 108.934 C 214.605 106.394, 208.881 106.399, 203.500 108.945 L 199.500 110.838 205 110.934 C 213.237 111.079, 213.408 111.319, 214.115 123.712 C 215.281 144.152, 212.284 155.008, 200.563 172.800 C 195.810 180.014, 176.664 199.275, 171.551 201.986 C 168.819 203.435, 168.662 203.373, 165.356 199.549 C 157.617 190.597, 153.839 177.509, 153.651 159 C 153.526 146.719, 154.330 141.612, 156.287 142.259 C 157.106 142.530, 157.697 146.698, 158.106 155.080 C 158.949 172.361, 162.515 185, 166.548 185 C 169.513 185, 170.179 179.872, 169.836 159.661 C 169.501 139.911, 169.489 139.814, 167.011 137.807 C 161.442 133.299, 148.253 137.984, 137.946 148.133 C 131.541 154.439, 127.027 162.405, 127.010 167.430 C 127.004 169.041, 128.154 175.185, 129.564 181.082 C 131.458 189.004, 133.258 193.694, 136.455 199.037 C 140.227 205.340, 140.669 206.669, 139.895 209.385 C 139.087 212.221, 136.636 215, 134.944 215 C 133.717 215, 122.875 187.969, 122.076 182.918 C 120.744 174.494, 119.695 176.029, 120.310 185.500 C 120.645 190.665, 121.982 198.091, 123.447 202.926 C 124.851 207.561, 126 212.623, 126 214.176 C 126 216.883, 125.801 217, 121.191 217 C 118.511 217, 115.523 216.350, 114.441 215.532 C 111.918 213.623, 108.569 213.609, 107 215.500 C 104.711 218.259, 104.001 217.049, 103.918 210.250 L 103.836 203.500 101.383 208.875 C 98.960 214.183, 98.884 214.243, 95.301 213.661 C 89.484 212.717, 89.285 211.617, 93.972 206.311 C 96.310 203.665, 99.518 199.250, 101.102 196.500 C 103.842 191.742, 103.976 190.943, 103.873 180 C 103.814 173.675, 103.442 164, 103.047 158.500 L 102.330 148.500 102.157 164 C 101.966 181.228, 100.751 190.933, 98.199 195.623 C 95.647 200.315, 87.106 212.817, 85.976 213.515 C 85.432 213.851, 83.682 213.198, 82.089 212.063 C 80.073 210.628, 77.640 210, 74.096 210 C 67.261 210, 67.426 208.161, 74.648 203.862 C 80.437 200.416, 85.286 195.243, 86.468 191.250 C 87.557 187.574, 85.370 188.658, 81.872 193.529 C 78.112 198.765, 69.421 204.904, 64.731 205.637 C 62.774 205.943, 60.752 205.585, 59.603 204.727 C 57.833 203.406, 58.302 202.902, 66.603 197.206 C 75.761 190.922, 79.951 185.946, 83.195 177.500 C 85.410 171.732, 86.247 166.271, 85.031 165.519 C 84.410 165.135, 84 166.084, 84 167.903 C 84 174.099, 79.958 182.231, 74.012 188 C 67.478 194.339, 59.026 199.663, 53.989 200.612 L 50.500 201.270 53.787 197.800 L 57.073 194.329 51.787 194.761 C 46.978 195.154, 46.120 194.891, 42.299 191.847 C 34.712 185.802, 24 171.187, 24 166.881 C 24 165.926, 22.538 164.001, 20.750 162.604 L 17.500 160.062 17.182 144.061 L 16.863 128.061 21.483 123.121 C 24.024 120.405, 25.700 117.933, 25.208 117.628 C 24.715 117.324, 22.663 117.530, 20.647 118.087 C 15.342 119.552, 13.625 122.839, 13.015 132.700 C 12.732 137.284, 12.060 141.139, 11.522 141.267 C 10.984 141.395, 9.461 137.233, 8.139 132.017 C 5.757 122.623, 5.752 122.501, 7.617 119.048 C 10.550 113.618, 15.266 110.938, 20.599 111.669 C 24.926 112.262, 25 112.224, 24.978 109.386 C 24.939 104.191, 17.817 92, 14.822 92 C 14.272 92, 14.987 93.385, 16.411 95.077 M 0.378 111 C 0.378 117.325, 0.541 119.912, 0.739 116.750 C 0.937 113.587, 0.937 108.412, 0.739 105.250 C 0.541 102.087, 0.378 104.675, 0.378 111 M 6 101.891 C 6 102.519, 7.586 103.789, 9.525 104.713 C 12.943 106.343, 13.117 106.328, 15.247 104.197 L 17.444 102 14.847 102 C 13.419 102, 10.844 101.719, 9.125 101.375 C 7.085 100.967, 6 101.146, 6 101.891 M 194 117.592 C 194 117.918, 194.900 119.329, 196 120.727 C 198.455 123.848, 198.541 128.795, 196.488 148.972 C 195.272 160.928, 195.245 163.673, 196.331 164.759 C 199.495 167.923, 202.999 163.346, 205.485 152.800 C 207.353 144.878, 207.579 119.979, 205.800 118.200 C 204.607 117.007, 194 116.461, 194 117.592 M 32.217 123.561 C 28.647 126.061, 27.117 130.171, 25.893 140.543 C 24.286 154.170, 25.062 161.682, 28.751 168.212 C 30.395 171.120, 32.135 173.500, 32.620 173.500 C 33.104 173.500, 33.771 164.500, 34.101 153.500 C 34.432 142.500, 35.220 131.928, 35.851 130.007 C 38.247 122.722, 36.879 120.295, 32.217 123.561 M 46.707 125.016 C 45.298 126.124, 43.678 128.487, 43.107 130.266 C 41.201 136.209, 40 150.293, 40 166.701 C 40 182.462, 40.068 182.998, 42.250 184.395 C 44.399 185.772, 46.997 186.365, 49.788 186.115 C 50.819 186.023, 50.950 181.068, 50.444 161.250 C 49.846 137.835, 49.924 136.184, 51.892 130.633 C 53.037 127.406, 53.728 124.368, 53.427 123.883 C 52.499 122.381, 49.390 122.905, 46.707 125.016 M 60.578 127.250 C 57.590 131.831, 56.761 139.375, 56.825 161.395 C 56.861 173.637, 57.304 183.704, 57.830 184.230 C 59.182 185.582, 64.418 182.626, 66.938 179.088 C 71.581 172.566, 72.956 167.876, 72.970 158.500 C 72.987 146.993, 71.366 132.813, 69.531 128.421 C 68.350 125.594, 67.576 125, 65.074 125 C 63.035 125, 61.567 125.735, 60.578 127.250 M 181.481 127.021 C 178.606 130.198, 177.176 139.713, 175.879 164.288 C 174.528 189.907, 174.664 190.607, 180.323 187.109 C 187.649 182.582, 188.715 177.814, 189.119 147.783 C 189.347 130.802, 189.200 128.878, 187.530 127.033 C 185.212 124.472, 183.790 124.469, 181.481 127.021 M 144.237 144.943 C 136.369 150.643, 131 160.666, 131 169.654 C 131 180.183, 137.286 198.219, 143.202 204.665 C 144.527 206.108, 144.968 207.525, 144.527 208.915 C 143.942 210.759, 144.272 211, 147.383 211 C 149.593 211, 151.239 210.395, 151.812 209.372 C 152.464 208.206, 152.930 208.077, 153.451 208.920 C 154.003 209.814, 154.514 209.818, 155.575 208.938 C 156.754 207.959, 156.663 207.386, 154.986 205.255 C 151.830 201.243, 152.682 200.300, 156.298 203.804 C 159.728 207.128, 161.985 207.896, 162.020 205.750 C 162.032 205.063, 160 200.450, 157.505 195.500 C 154.278 189.094, 152.692 184.482, 152.005 179.500 C 150.747 170.379, 150.733 152.419, 151.980 148.071 C 152.658 145.705, 152.621 144.248, 151.857 143.328 C 150.227 141.364, 148.744 141.678, 144.237 144.943" stroke="none" fill="#338345" fill-rule="evenodd"/></svg>