<svg xmlns="http://www.w3.org/2000/svg" width="488" height="103" viewBox="0 0 488 103" version="1.1"><path d="M 50.500 5.224 C 20.754 8.852, 10.209 10.482, 9.367 11.583 C 8.081 13.262, 6.476 31.343, 7.469 32.950 C 7.868 33.595, 13.090 34, 21.015 34 C 33.122 34, 34.137 33.847, 37.595 31.500 C 42.220 28.362, 44.088 28.362, 47.818 31.500 L 50.789 34 82.772 34 C 107.148 34, 114.998 33.703, 115.775 32.750 C 116.923 31.344, 119.578 9.245, 118.704 8.371 C 118.020 7.687, 103.582 3.400, 96 1.630 C 90.969 0.456, 87.089 0.762, 50.500 5.224 M 167.500 18.499 C 166.950 18.685, 164.786 19.123, 162.690 19.475 C 157.520 20.341, 151.336 26.038, 149.941 31.220 C 147.258 41.183, 152.314 48.913, 165.500 55.013 C 175.628 59.699, 179 62.958, 179 68.064 C 179 71.007, 178.385 72.340, 176.250 74.025 C 172.381 77.079, 164.167 76.440, 158.157 72.619 C 153.338 69.555, 151.534 69.734, 149.844 73.442 C 148.399 76.614, 149.682 78.299, 155.968 81.484 C 173.307 90.270, 192.925 79.502, 188.876 63.420 C 187.215 56.826, 183.535 53.396, 172 47.692 C 163.045 43.264, 161.234 41.957, 159.695 38.807 C 158.019 35.378, 158.005 34.892, 159.493 32.014 C 162.365 26.459, 168.431 25.591, 176.880 29.524 C 182.587 32.180, 183.897 31.929, 186.134 27.749 C 187.501 25.195, 185.093 22.549, 179.628 20.600 C 175.162 19.007, 169.106 17.958, 167.500 18.499 M 326.787 22.749 C 325.632 25.361, 319.139 39.816, 312.360 54.871 C 305.580 69.927, 300.277 82.640, 300.576 83.122 C 301.230 84.182, 307.085 84.265, 308.533 83.235 C 309.102 82.831, 310.770 79.800, 312.240 76.500 L 314.913 70.500 329.944 70.224 L 344.975 69.948 348.237 76.724 C 351.333 83.152, 351.693 83.516, 355.258 83.811 C 357.680 84.011, 359.195 83.654, 359.520 82.807 C 360.008 81.537, 334.033 21.950, 331.840 19.307 C 330.010 17.102, 328.972 17.809, 326.787 22.749 M 447.081 19.533 C 440.309 21.423, 436.186 23.944, 431.640 28.977 C 424.896 36.441, 423.500 40.306, 423.501 51.500 C 423.501 60.396, 423.795 62.056, 426.161 66.540 C 429.428 72.730, 436.587 79.484, 442.824 82.258 C 449.872 85.393, 460.796 85.224, 468.046 81.866 C 475.669 78.335, 480.085 74.180, 484.073 66.785 C 487.168 61.046, 487.462 59.761, 487.460 52 C 487.457 44.967, 487.011 42.543, 484.877 37.954 C 481.255 30.167, 476.817 25.523, 469.664 22.035 C 462.038 18.316, 454.455 17.476, 447.081 19.533 M 195.402 20.395 C 195.099 21.185, 194.997 23.107, 195.175 24.666 C 195.497 27.477, 195.563 27.502, 203.250 27.792 L 211 28.084 211 54.920 C 211 84.526, 210.976 84.414, 217.185 83.818 L 220.500 83.500 220.766 55.750 L 221.032 28 229.073 28 L 237.115 28 236.807 23.750 L 236.500 19.500 216.227 19.229 C 199.350 19.004, 195.861 19.199, 195.402 20.395 M 247.454 20.260 C 247.188 20.953, 247.090 35.465, 247.235 52.510 L 247.500 83.500 251.500 83.500 L 255.500 83.500 255.781 71.250 L 256.062 59 263.046 59 L 270.031 59 276.117 71.500 L 282.204 84 286.634 84 C 289.329 84, 291.257 83.495, 291.558 82.709 C 291.831 81.999, 289.341 76.412, 286.027 70.293 C 279.984 59.140, 279.170 57, 280.965 57 C 282.954 57, 289.381 50.371, 291.135 46.509 C 293.632 41.011, 293.451 36.291, 290.517 30.446 C 287.892 25.218, 283.514 21.581, 277.905 19.973 C 272.684 18.475, 248.049 18.708, 247.454 20.260 M 354.687 19.647 C 354.309 20.024, 354 22.058, 354 24.167 L 354 28 361.984 28 L 369.968 28 370.234 55.750 L 370.500 83.500 373.815 83.818 C 380.025 84.414, 380 84.531, 380 54.878 L 380 28 388.057 28 L 396.115 28 395.807 23.750 L 395.500 19.500 375.437 19.230 C 364.402 19.081, 355.065 19.269, 354.687 19.647 M 405.477 20.199 C 405.198 20.925, 405.090 35.465, 405.235 52.510 L 405.500 83.500 409.500 83.500 L 413.500 83.500 413.500 51.500 L 413.500 19.500 409.742 19.189 C 407.312 18.988, 405.805 19.345, 405.477 20.199 M 256.217 39.250 L 256.500 50.500 262.500 50.817 C 270.974 51.264, 276.636 50.223, 279.536 47.686 C 284.974 42.930, 284.274 34.434, 278.102 30.285 C 275.163 28.309, 273.436 28, 265.319 28 L 255.934 28 256.217 39.250 M 446.422 29.418 C 437.831 33.159, 432 42.095, 432 51.521 C 432 75.238, 462.359 84.272, 475.012 64.321 C 484.923 48.691, 473.770 27.958, 455.500 28.049 C 452.200 28.065, 448.115 28.681, 446.422 29.418 M 329.584 37.864 C 328.878 39.007, 319 61.257, 319 61.705 C 319 61.867, 323.950 62, 330 62 C 336.050 62, 341 61.600, 341 61.111 C 341 60.231, 331.239 37.906, 330.555 37.222 C 330.360 37.027, 329.923 37.316, 329.584 37.864 M 5.537 43.250 C 4.451 49.628, 3.405 60.714, 3.782 61.847 C 4.062 62.687, 13.262 63, 37.676 63 C 69.670 63, 71.299 62.910, 73.727 61 C 75.126 59.900, 77.489 59, 78.980 59 C 80.470 59, 82.505 59.900, 83.500 61 C 85.143 62.815, 86.580 63, 99.048 63 C 109.629 63, 112.905 62.691, 113.302 61.656 C 113.586 60.917, 114.142 55.742, 114.538 50.156 L 115.258 40 81.537 40 C 49.330 40, 47.701 40.090, 45.273 42 C 43.874 43.100, 41.511 44, 40.020 44 C 38.530 44, 36.495 43.100, 35.500 42 C 33.857 40.184, 32.420 40, 19.890 40 L 6.091 40 5.537 43.250 M 3.332 70.250 C 2.900 70.938, 2.008 76.450, 1.351 82.500 C 0.436 90.913, 0.430 93.768, 1.327 94.640 C 2.891 96.161, 24.204 101.995, 28.281 102.018 C 33.708 102.049, 108.444 92.793, 109.343 91.978 C 110.275 91.134, 112.794 71.883, 112.204 70.113 C 111.956 69.369, 107.356 69, 98.324 69 C 86.330 69, 84.530 69.224, 82.273 71 C 78.973 73.595, 73.849 73.595, 71.500 71 C 69.760 69.077, 68.420 69, 36.904 69 C 11.761 69, 3.935 69.291, 3.332 70.250" stroke="none" fill="#084279" fill-rule="evenodd"/><path d="M 0.127 45.750 C 0.237 85.504, 0.402 90.189, 1.387 81.500 C 2.011 76, 2.880 70.938, 3.319 70.250 C 3.932 69.292, 11.768 69, 36.904 69 C 68.420 69, 69.760 69.077, 71.500 71 C 73.849 73.595, 78.973 73.595, 82.273 71 C 84.530 69.224, 86.330 69, 98.324 69 C 107.356 69, 111.956 69.369, 112.204 70.113 C 112.794 71.883, 110.275 91.134, 109.343 91.978 C 108.444 92.793, 33.708 102.049, 28.281 102.018 C 24.551 101.997, 3.102 96.232, 1.250 94.753 C 0.286 93.984, 0 94.814, 0 98.380 L 0 103.004 244.250 102.752 L 488.500 102.500 488.782 51.250 L 489.064 0 289.782 0.055 C 92.682 0.110, 90.579 0.131, 97.686 1.994 C 115.553 6.677, 119 7.991, 119 10.122 C 119 15.270, 116.656 31.631, 115.758 32.750 C 114.993 33.703, 107.157 34, 82.772 34 L 50.789 34 47.818 31.500 C 44.088 28.362, 42.220 28.362, 37.595 31.500 C 34.137 33.847, 33.122 34, 21.015 34 C 13.090 34, 7.868 33.595, 7.469 32.950 C 6.476 31.343, 8.081 13.262, 9.367 11.583 C 10.207 10.485, 20.829 8.824, 50.500 5.150 L 90.500 0.197 45.250 0.098 L 0 0 0.127 45.750 M 0.461 46 C 0.461 71.025, 0.590 81.263, 0.749 68.750 C 0.908 56.238, 0.908 35.763, 0.749 23.250 C 0.590 10.738, 0.461 20.975, 0.461 46 M 167.500 18.499 C 166.950 18.685, 164.786 19.123, 162.690 19.475 C 157.520 20.341, 151.336 26.038, 149.941 31.220 C 147.258 41.183, 152.314 48.913, 165.500 55.013 C 175.628 59.699, 179 62.958, 179 68.064 C 179 71.007, 178.385 72.340, 176.250 74.025 C 172.381 77.079, 164.167 76.440, 158.157 72.619 C 153.338 69.555, 151.534 69.734, 149.844 73.442 C 148.399 76.614, 149.682 78.299, 155.968 81.484 C 173.307 90.270, 192.925 79.502, 188.876 63.420 C 187.215 56.826, 183.535 53.396, 172 47.692 C 163.045 43.264, 161.234 41.957, 159.695 38.807 C 158.019 35.378, 158.005 34.892, 159.493 32.014 C 162.365 26.459, 168.431 25.591, 176.880 29.524 C 182.587 32.180, 183.897 31.929, 186.134 27.749 C 187.501 25.195, 185.093 22.549, 179.628 20.600 C 175.162 19.007, 169.106 17.958, 167.500 18.499 M 326.787 22.749 C 325.632 25.361, 319.139 39.816, 312.360 54.871 C 305.580 69.927, 300.277 82.640, 300.576 83.122 C 301.230 84.182, 307.085 84.265, 308.533 83.235 C 309.102 82.831, 310.770 79.800, 312.240 76.500 L 314.913 70.500 329.944 70.224 L 344.975 69.948 348.237 76.724 C 351.333 83.152, 351.693 83.516, 355.258 83.811 C 357.680 84.011, 359.195 83.654, 359.520 82.807 C 360.008 81.537, 334.033 21.950, 331.840 19.307 C 330.010 17.102, 328.972 17.809, 326.787 22.749 M 447.081 19.533 C 440.309 21.423, 436.186 23.944, 431.640 28.977 C 424.896 36.441, 423.500 40.306, 423.501 51.500 C 423.501 60.396, 423.795 62.056, 426.161 66.540 C 429.428 72.730, 436.587 79.484, 442.824 82.258 C 449.872 85.393, 460.796 85.224, 468.046 81.866 C 475.669 78.335, 480.085 74.180, 484.073 66.785 C 487.168 61.046, 487.462 59.761, 487.460 52 C 487.457 44.967, 487.011 42.543, 484.877 37.954 C 481.255 30.167, 476.817 25.523, 469.664 22.035 C 462.038 18.316, 454.455 17.476, 447.081 19.533 M 195.402 20.395 C 195.099 21.185, 194.997 23.107, 195.175 24.666 C 195.497 27.477, 195.563 27.502, 203.250 27.792 L 211 28.084 211 54.920 C 211 84.526, 210.976 84.414, 217.185 83.818 L 220.500 83.500 220.766 55.750 L 221.032 28 229.073 28 L 237.115 28 236.807 23.750 L 236.500 19.500 216.227 19.229 C 199.350 19.004, 195.861 19.199, 195.402 20.395 M 247.454 20.260 C 247.188 20.953, 247.090 35.465, 247.235 52.510 L 247.500 83.500 251.500 83.500 L 255.500 83.500 255.781 71.250 L 256.062 59 263.046 59 L 270.031 59 276.117 71.500 L 282.204 84 286.634 84 C 289.329 84, 291.257 83.495, 291.558 82.709 C 291.831 81.999, 289.341 76.412, 286.027 70.293 C 279.984 59.140, 279.170 57, 280.965 57 C 282.954 57, 289.381 50.371, 291.135 46.509 C 293.632 41.011, 293.451 36.291, 290.517 30.446 C 287.892 25.218, 283.514 21.581, 277.905 19.973 C 272.684 18.475, 248.049 18.708, 247.454 20.260 M 354.687 19.647 C 354.309 20.024, 354 22.058, 354 24.167 L 354 28 361.984 28 L 369.968 28 370.234 55.750 L 370.500 83.500 373.815 83.818 C 380.025 84.414, 380 84.531, 380 54.878 L 380 28 388.057 28 L 396.115 28 395.807 23.750 L 395.500 19.500 375.437 19.230 C 364.402 19.081, 355.065 19.269, 354.687 19.647 M 405.477 20.199 C 405.198 20.925, 405.090 35.465, 405.235 52.510 L 405.500 83.500 409.500 83.500 L 413.500 83.500 413.500 51.500 L 413.500 19.500 409.742 19.189 C 407.312 18.988, 405.805 19.345, 405.477 20.199 M 256.217 39.250 L 256.500 50.500 262.500 50.817 C 270.974 51.264, 276.636 50.223, 279.536 47.686 C 284.974 42.930, 284.274 34.434, 278.102 30.285 C 275.163 28.309, 273.436 28, 265.319 28 L 255.934 28 256.217 39.250 M 446.422 29.418 C 437.831 33.159, 432 42.095, 432 51.521 C 432 75.238, 462.359 84.272, 475.012 64.321 C 484.923 48.691, 473.770 27.958, 455.500 28.049 C 452.200 28.065, 448.115 28.681, 446.422 29.418 M 329.584 37.864 C 328.878 39.007, 319 61.257, 319 61.705 C 319 61.867, 323.950 62, 330 62 C 336.050 62, 341 61.600, 341 61.111 C 341 60.231, 331.239 37.906, 330.555 37.222 C 330.360 37.027, 329.923 37.316, 329.584 37.864 M 5.537 43.250 C 4.451 49.628, 3.405 60.714, 3.782 61.847 C 4.062 62.687, 13.262 63, 37.676 63 C 69.670 63, 71.299 62.910, 73.727 61 C 75.126 59.900, 77.489 59, 78.980 59 C 80.470 59, 82.505 59.900, 83.500 61 C 85.143 62.815, 86.580 63, 99.048 63 C 109.629 63, 112.905 62.691, 113.302 61.656 C 113.586 60.917, 114.142 55.742, 114.538 50.156 L 115.258 40 81.537 40 C 49.330 40, 47.701 40.090, 45.273 42 C 43.874 43.100, 41.511 44, 40.020 44 C 38.530 44, 36.495 43.100, 35.500 42 C 33.857 40.184, 32.420 40, 19.890 40 L 6.091 40 5.537 43.250 M 0.286 98.500 C 0.294 101.250, 0.488 102.256, 0.718 100.736 C 0.947 99.216, 0.941 96.966, 0.704 95.736 C 0.467 94.506, 0.279 95.750, 0.286 98.500" stroke="none" fill="#f9f9f9" fill-rule="evenodd"/></svg>