<?xml version="1.0" standalone="no"?>
<!DOCTYPE svg PUBLIC "-//W3C//DTD SVG 20010904//EN"
 "http://www.w3.org/TR/2001/REC-SVG-20010904/DTD/svg10.dtd">
<svg version="1.0" xmlns="http://www.w3.org/2000/svg"
 width="799.000000pt" height="348.000000pt" viewBox="0 0 799.000000 348.000000"
 preserveAspectRatio="xMidYMid meet">

<g transform="translate(0.000000,348.000000) scale(0.100000,-0.100000)"
fill="#000000" stroke="none">
<path d="M3322 2867 l-172 -42 2 -1030 3 -1030 23 -57 c26 -64 80 -119 137
-138 63 -21 200 -9 261 23 50 26 124 99 124 123 0 6 -13 17 -29 24 -42 17 -76
57 -108 125 l-28 60 -3 993 c-2 932 -4 992 -20 991 -9 0 -95 -20 -190 -42z"/>
<path d="M5250 2841 c-107 -35 -170 -116 -170 -218 1 -188 233 -290 373 -165
120 109 97 290 -46 363 -44 23 -120 32 -157 20z"/>
<path d="M4098 2613 l-178 -66 0 -163 0 -163 -92 -3 -93 -3 -3 -152 -3 -153
95 0 94 0 5 -477 c3 -417 6 -486 21 -537 51 -174 155 -277 321 -321 105 -27
378 -18 508 16 l37 10 0 175 0 174 -37 -19 c-95 -48 -236 -65 -328 -40 -54 15
-99 64 -121 130 -15 47 -18 107 -22 472 l-4 417 226 0 226 0 0 155 0 155 -225
0 -225 0 0 230 c0 178 -3 230 -12 229 -7 0 -93 -30 -190 -66z"/>
<path d="M1572 2299 c-59 -10 -202 -56 -216 -69 -11 -11 603 -1267 658 -1344
112 -156 270 -261 465 -308 124 -29 312 -22 426 16 45 15 87 31 94 35 9 6 -65
170 -285 627 -163 340 -317 650 -341 688 -170 264 -491 406 -801 355z"/>
<path d="M6112 2240 c-95 -10 -222 -40 -286 -69 l-44 -19 40 -144 c22 -78 41
-144 42 -145 1 -1 34 9 74 23 101 35 269 51 373 36 171 -25 253 -95 273 -234
l7 -48 -33 8 c-18 4 -107 6 -198 6 -142 -1 -179 -5 -261 -27 -250 -65 -405
-200 -465 -402 -27 -90 -24 -259 5 -344 74 -214 249 -320 527 -321 181 0 316
45 415 137 l48 45 20 -40 c27 -54 114 -130 157 -138 55 -10 166 1 207 20 21
11 49 35 63 55 l24 36 -24 21 c-36 34 -64 84 -82 150 -13 48 -18 131 -24 434
-6 330 -10 387 -29 480 -49 232 -139 353 -313 423 -129 51 -342 75 -516 57z
m470 -888 c7 -7 9 -55 6 -139 -3 -113 -7 -134 -30 -183 -31 -64 -41 -77 -88
-112 -102 -76 -332 -78 -412 -3 -46 42 -61 83 -62 160 0 149 83 241 256 280
73 17 312 15 330 -3z"/>
<path d="M4890 2055 l0 -155 105 0 105 0 2 -667 3 -668 198 -3 197 -2 0 825 0
825 -305 0 -305 0 0 -155z"/>
<path d="M1150 2137 c-71 -42 -160 -120 -208 -180 -68 -87 -96 -138 -133 -247
-31 -89 -33 -104 -33 -230 0 -99 5 -152 18 -199 74 -267 270 -470 536 -553 64
-20 95 -23 215 -22 124 0 149 3 220 27 123 41 119 27 45 179 -36 73 -65 134
-66 136 0 1 -17 -4 -36 -12 -67 -28 -161 -39 -239 -27 -201 32 -358 186 -391
386 -28 168 55 357 197 452 30 19 55 40 55 45 0 15 -130 268 -138 267 -4 0
-23 -10 -42 -22z"/>
</g>
</svg>
