<?xml version="1.0" standalone="no"?>
<!DOCTYPE svg PUBLIC "-//W3C//DTD SVG 20010904//EN"
 "http://www.w3.org/TR/2001/REC-SVG-20010904/DTD/svg10.dtd">
<svg version="1.0" xmlns="http://www.w3.org/2000/svg"
 width="225.000000pt" height="224.000000pt" viewBox="0 0 225.000000 224.000000"
 preserveAspectRatio="xMidYMid meet">

<g transform="translate(0.000000,224.000000) scale(0.100000,-0.100000)"
fill="#000000" stroke="none">
<path d="M1055 2233 c-261 -21 -458 -103 -676 -281 -77 -62 -120 -112 -182
-208 -150 -233 -212 -469 -188 -721 26 -277 173 -572 370 -740 147 -126 283
-195 493 -250 91 -24 120 -27 243 -26 459 4 823 231 1020 637 66 135 92 226
106 371 51 531 -293 1028 -814 1179 -79 23 -258 48 -311 44 -11 -1 -39 -3 -61
-5z m-90 -81 c27 6 34 -9 13 -30 -21 -21 -54 -14 -66 13 -18 38 -14 50 8 30
12 -11 29 -16 45 -13z m307 6 c5 -32 26 -34 38 -3 9 23 13 25 26 14 8 -7 14
-24 12 -38 -3 -28 -13 -30 -88 -15 -34 6 -70 29 -70 45 0 4 15 10 33 12 17 2
35 5 39 5 4 1 8 -8 10 -20z m-378 -38 c42 -47 43 -53 15 -81 -24 -24 -35 -19
-20 9 15 28 14 29 -13 47 -33 22 -71 4 -62 -28 9 -36 -50 -78 -68 -49 -9 15
-70 0 -97 -23 -20 -17 -24 -26 -17 -39 5 -9 8 -31 6 -49 -4 -39 -46 -60 -73
-37 -9 8 -29 14 -43 15 -43 0 -41 32 2 37 28 3 36 0 40 -15 8 -31 41 -17 44
20 l3 32 -60 7 c-34 3 -61 11 -61 15 0 5 7 9 15 9 8 0 24 14 37 30 27 37 41
39 32 5 -5 -19 -2 -25 11 -25 9 0 19 9 22 20 3 12 13 20 22 19 48 -4 71 2 71
19 0 22 22 72 33 72 4 0 7 -18 7 -41 0 -36 2 -40 23 -37 14 2 23 11 25 27 2
13 12 25 22 28 10 3 21 16 24 29 9 33 18 30 60 -16z m523 -25 c-4 -11 -57 -21
-57 -10 0 3 8 17 17 31 16 25 17 25 30 8 7 -10 12 -23 10 -29z m-300 15 c23 0
33 -5 33 -15 0 -9 9 -15 25 -15 14 0 25 -4 25 -9 0 -17 -30 -33 -47 -26 -43
18 -93 22 -104 9 -15 -19 -44 -18 -63 2 -24 24 -20 29 26 29 38 0 43 3 46 24
3 17 7 20 15 12 6 -6 26 -11 44 -11z m361 -18 c3 -27 0 -32 -19 -32 -17 0 -20
4 -15 23 3 12 6 28 6 35 0 28 25 4 28 -26z m-798 -1 c0 -14 -28 -33 -40 -26
-15 10 -12 23 8 28 28 8 32 7 32 -2z m888 -28 c17 -23 22 -25 35 -15 26 22 32
-7 6 -34 -28 -30 -42 -30 -88 -2 l-36 23 28 9 c20 7 26 15 21 28 -8 27 12 22
34 -9z m-248 -48 c-7 -8 -18 -15 -25 -15 -7 0 -18 -6 -25 -14 -6 -8 -24 -16
-38 -18 -20 -2 -28 -9 -30 -28 -5 -50 -13 -70 -25 -70 -6 -1 -30 -9 -52 -20
-35 -16 -42 -17 -56 -4 -8 8 -23 14 -32 14 -10 0 -17 8 -17 20 0 24 1 24 43 4
33 -16 35 -16 56 5 11 11 28 21 36 21 8 0 15 9 15 20 0 11 -6 20 -14 20 -7 0
-19 6 -26 14 -12 15 -26 13 -67 -7 -17 -8 -30 -7 -50 3 -16 7 -39 13 -52 14
-13 1 -30 10 -37 22 -13 19 -12 20 25 18 22 -1 47 -9 56 -18 22 -21 47 -20 78
4 30 24 43 25 54 6 13 -22 52 -30 59 -12 3 9 17 16 29 16 15 0 26 8 30 19 4
13 17 21 38 23 35 3 47 -13 27 -37z m110 24 c0 -21 -44 -87 -69 -103 -7 -4
-22 -17 -34 -29 -19 -19 -19 -20 -2 -34 27 -19 35 -16 35 11 0 17 8 27 28 35
15 6 42 21 60 32 29 19 32 19 32 4 0 -12 6 -16 20 -12 11 3 20 2 20 -2 0 -15
-39 -43 -50 -36 -7 4 -18 -2 -26 -14 -8 -12 -21 -21 -28 -21 -7 0 -21 -9 -31
-20 -28 -31 -62 -26 -86 15 -12 19 -27 35 -35 35 -8 0 -14 7 -14 15 0 9 9 15
21 15 12 0 23 8 26 20 4 13 14 20 29 20 17 0 27 8 34 25 5 14 16 25 24 25 8 0
18 9 21 20 8 26 25 26 25 -1z m250 -5 c0 -8 -9 -14 -20 -14 -22 0 -26 10 -8
28 13 13 28 7 28 -14z m80 -54 c0 -32 -22 -54 -48 -48 -10 3 -27 -1 -37 -8
-10 -8 -26 -14 -35 -14 -8 0 -21 -9 -28 -20 -17 -28 -47 -25 -60 5 -16 35 -16
53 0 37 17 -17 47 -15 54 3 4 8 14 15 24 15 10 0 23 7 30 15 7 8 25 15 41 15
22 0 29 5 29 20 0 13 5 18 15 14 8 -4 15 -18 15 -34z m-873 -2 c15 -12 17 -48
3 -48 -5 0 -10 9 -10 20 0 11 -2 20 -4 20 -2 0 -11 2 -19 6 -11 4 -15 -10 -19
-70 -5 -80 -18 -106 -51 -106 -21 0 -21 0 1 20 15 14 22 33 22 59 0 21 3 59 6
84 6 44 7 45 32 36 15 -6 32 -15 39 -21z m-86 -30 c-6 -30 -11 -33 -55 -41
-37 -6 -51 -5 -57 5 -6 9 -2 14 12 16 11 2 23 10 26 18 3 8 16 14 28 14 13 0
27 5 30 10 13 21 22 9 16 -22z m-340 -6 c-5 -10 -5 -24 2 -39 12 -27 -5 -53
-36 -53 -11 0 -25 -7 -32 -16 -8 -11 -19 -14 -33 -10 -27 9 -29 26 -3 26 10 0
21 9 24 19 3 14 11 18 26 14 17 -4 21 -1 21 21 0 34 18 69 31 61 6 -4 6 -13 0
-23z m1363 -17 c3 -8 3 -22 -1 -31 -5 -14 -2 -16 20 -10 29 7 34 -3 17 -35
-14 -25 -26 -24 -66 6 -18 14 -41 25 -52 25 -11 0 -25 7 -33 16 -12 14 -8 15
31 13 32 -3 46 1 54 14 13 21 22 22 30 2z m-844 -9 c15 -18 10 -58 -8 -64 -11
-3 -12 0 -2 18 9 16 9 25 1 33 -8 8 -19 3 -40 -17 -31 -30 -51 -28 -51 6 0 14
5 18 16 14 9 -3 25 1 37 9 27 19 32 19 47 1z m718 -47 c22 -17 27 -30 27 -63
0 -40 1 -41 37 -46 30 -4 36 -8 28 -20 -15 -23 -12 -63 6 -88 14 -21 22 -23
67 -17 34 4 61 1 77 -7 27 -15 38 -54 21 -71 -13 -13 -15 -64 -2 -72 5 -3 19
-36 32 -73 12 -37 24 -72 26 -79 3 -7 -3 -10 -15 -6 -14 3 -28 -8 -56 -45 -39
-54 -115 -127 -123 -118 -12 11 22 81 78 158 41 58 59 92 59 114 0 48 -10 47
-53 -2 -48 -55 -80 -57 -85 -6 -2 22 -8 32 -20 32 -34 0 -40 -15 -44 -115 -3
-91 -7 -106 -38 -165 -43 -80 -143 -188 -207 -222 -94 -51 -207 -46 -266 13
-27 27 -29 35 -25 82 3 32 21 88 47 147 93 205 131 326 131 418 0 60 12 83 23
42 4 -16 14 -20 47 -20 61 0 90 33 90 102 0 29 5 60 11 68 7 11 9 -19 6 -105
-5 -157 -22 -197 -103 -253 -33 -22 -67 -48 -77 -59 -9 -11 -44 -79 -78 -152
-54 -119 -60 -137 -57 -189 3 -52 6 -58 38 -80 42 -28 76 -25 160 15 62 30
164 128 225 216 32 48 37 60 25 67 -25 16 -39 11 -55 -20 -32 -62 -43 -9 -19
94 l7 28 -61 -33 c-56 -31 -62 -37 -62 -66 0 -97 -88 -217 -153 -211 -30 3
-32 5 -31 44 2 112 171 245 496 391 72 32 110 55 117 70 12 26 -1 39 -19 18
-19 -23 -33 -18 -26 10 6 22 3 25 -19 25 -15 0 -31 -9 -41 -25 -31 -47 -53
-51 -87 -16 -31 31 -31 31 -14 60 22 38 22 78 0 83 -12 3 -29 -12 -51 -44 -31
-45 -52 -55 -52 -24 0 7 16 43 35 80 37 71 44 110 22 119 -9 3 -18 -7 -26 -28
-15 -43 -39 -52 -51 -20 -5 14 -15 25 -22 25 -9 0 -9 3 1 13 10 10 15 8 26 -7
18 -24 35 -12 35 25 0 35 4 35 38 8z m-476 -56 c-6 -21 -13 -47 -14 -58 -4
-28 -112 -85 -129 -68 -10 10 -8 14 7 18 10 3 35 14 54 23 28 14 35 23 35 46
0 35 -22 47 -27 14 -2 -18 -9 -23 -33 -23 -20 0 -31 5 -33 18 -2 12 3 17 17
17 11 0 25 9 31 20 7 14 21 20 45 20 18 0 37 5 40 11 14 21 18 -2 7 -38z m278
25 c33 -4 37 -34 9 -64 -21 -23 -22 -24 -3 -24 11 0 25 5 32 12 18 18 14 -4
-6 -28 -17 -22 -65 -36 -89 -27 -18 7 -16 23 3 23 9 0 14 6 11 13 -3 6 -8 19
-11 27 -5 12 1 15 25 15 18 0 34 6 36 13 3 7 -5 12 -22 12 -14 0 -38 8 -52 17
l-26 17 24 7 c13 3 29 2 34 -2 6 -4 21 -9 35 -11z m430 -17 c0 -18 -9 -31 -30
-43 -18 -10 -30 -25 -30 -37 0 -27 20 -38 35 -18 7 10 19 17 27 17 8 0 19 5
26 12 14 14 19 10 24 -17 2 -14 -3 -21 -18 -23 -12 -2 -24 -12 -27 -23 -4 -16
-14 -19 -64 -19 -57 0 -83 11 -83 36 0 7 10 9 25 6 22 -4 25 -1 25 22 0 16 -6
26 -15 26 -8 0 -19 9 -25 20 -6 11 -20 20 -30 20 -11 0 -20 5 -20 10 0 6 15
10 34 10 25 0 35 -5 39 -20 3 -11 10 -20 15 -20 5 0 12 9 15 20 3 11 12 20 20
20 9 0 18 9 22 19 9 28 35 15 35 -18z m-1173 12 c3 -7 -4 -9 -16 -6 -12 3 -18
9 -15 15 7 11 26 6 31 -9z m213 -8 c0 -10 10 -15 29 -15 29 0 29 0 19 -42 -12
-56 -24 -69 -57 -61 -26 6 -26 6 -7 -16 11 -11 25 -21 33 -21 7 0 13 -7 13
-15 0 -22 -32 -18 -58 5 -37 35 -27 104 13 94 28 -7 41 11 24 32 -8 10 -21 13
-36 9 -23 -5 -24 -5 -7 20 18 28 34 33 34 10z m-407 -25 c9 0 19 5 22 10 3 6
22 10 40 10 26 0 33 -4 29 -15 -3 -8 -16 -17 -27 -21 -12 -3 -30 -13 -40 -22
-14 -12 -22 -13 -43 -4 -35 17 -69 15 -85 -4 -7 -9 -22 -14 -36 -11 -17 3 -29
-3 -43 -20 -11 -14 -24 -22 -30 -18 -7 4 -18 -2 -26 -14 -18 -25 -62 -28 -90
-6 -18 15 -17 15 19 13 29 -2 43 2 53 17 21 28 17 45 -11 45 -16 0 -25 6 -25
16 0 16 23 14 67 -8 12 -6 30 -7 40 -3 10 4 28 7 40 6 13 -1 27 6 35 18 7 12
23 21 35 21 12 0 25 5 29 12 5 8 11 6 19 -5 7 -10 19 -17 28 -17z m847 -47 c0
-26 0 -26 -19 -7 -20 21 -18 34 5 34 9 0 14 -10 14 -27z m-753 -19 c-3 -3 13
-29 36 -58 92 -112 166 -265 206 -422 29 -117 35 -185 18 -208 -13 -17 -16
-16 -51 25 -55 63 -73 111 -81 214 -8 115 -25 174 -87 313 -36 79 -55 111 -64
108 -42 -17 -46 -16 -19 8 25 21 61 38 42 20z m248 -72 c13 -58 88 -83 118
-39 l16 22 0 -28 c1 -42 51 -277 68 -317 l14 -35 19 23 c29 35 79 177 95 270
20 111 19 122 -4 122 -14 0 -24 -13 -35 -46 -22 -65 -64 -134 -81 -134 -12 0
-15 15 -15 70 0 68 1 70 21 58 18 -12 24 -9 53 25 24 26 53 44 101 62 72 26
93 28 50 5 -24 -13 -25 -17 -19 -79 5 -63 3 -71 -46 -181 -28 -63 -72 -153
-99 -200 -27 -47 -59 -112 -71 -145 -38 -102 -45 -97 -46 28 -1 142 -21 219
-109 406 -59 127 -64 142 -53 168 l12 28 3 -30 c2 -16 6 -40 8 -53z m-370 44
c39 -16 68 -64 63 -104 -3 -25 -6 -27 -56 -28 -29 -1 -55 3 -58 7 -3 5 -16 9
-30 9 -20 0 -29 9 -46 48 -12 26 -24 50 -26 53 -1 4 7 7 20 6 13 0 31 3 41 7
28 13 21 -21 -9 -37 l-25 -13 48 -22 c57 -26 123 -27 123 -1 0 21 -17 34 -52
43 -15 3 -32 15 -38 26 -13 24 -3 26 45 6z m1522 -32 c3 -9 1 -25 -5 -35 -18
-29 -15 -41 9 -34 33 11 21 -37 -14 -53 -38 -19 -56 -3 -38 32 8 13 11 29 7
34 -3 5 -3 24 0 41 7 33 31 42 41 15z m-1408 -78 c23 -62 41 -181 41 -272 0
-56 -2 -64 -19 -64 -45 0 -130 110 -146 190 -4 19 -16 45 -28 58 -23 24 -57
30 -57 8 0 -42 57 -198 100 -275 54 -96 59 -111 34 -111 -45 0 -124 88 -124
138 0 17 -11 14 -38 -8 -20 -16 -21 -22 -12 -40 6 -12 9 -29 6 -37 -6 -14 -9
-14 -26 2 -11 10 -22 26 -25 36 -4 11 -13 19 -22 19 -10 0 -13 -6 -9 -16 3 -9
9 -28 13 -42 6 -27 6 -27 -15 -8 -34 30 -41 116 -10 116 5 0 8 -6 5 -14 -6
-15 12 -26 43 -26 10 0 35 15 54 34 42 39 45 62 16 154 -23 74 -25 111 -7 118
7 2 38 -7 68 -21 65 -30 90 -31 114 -5 15 16 17 30 11 76 -8 68 5 64 33 -10z
m436 54 c3 -5 -1 -10 -9 -10 -8 0 -18 5 -21 10 -3 6 1 10 9 10 8 0 18 -4 21
-10z m-725 -29 c0 -17 -32 -42 -47 -37 -8 3 -24 -1 -36 -9 -19 -13 -117 -22
-117 -11 0 2 -2 10 -5 18 -4 11 7 13 52 12 40 -1 68 4 92 17 39 21 61 24 61
10z m38 -73 c-2 -18 -10 -23 -38 -25 -29 -2 -31 -1 -14 6 12 5 24 16 27 25 10
24 29 19 25 -6z m1333 2 c30 -17 23 -38 -21 -60 -48 -25 -49 -25 -43 -1 3 13
-1 20 -13 23 -17 3 -17 5 4 26 24 24 43 27 73 12z m274 -32 c19 -8 31 -8 51 1
23 10 30 9 51 -11 18 -17 22 -29 18 -50 -5 -19 0 -36 16 -57 21 -28 21 -32 8
-68 -10 -27 -22 -39 -38 -41 -35 -5 -50 15 -19 27 27 10 43 37 28 46 -6 4 -10
2 -10 -4 0 -19 -40 -34 -56 -20 -22 18 -17 27 19 31 24 2 33 8 35 26 3 22 -4
26 -41 22 -17 -1 -18 0 -2 24 20 30 13 46 -20 46 -17 0 -23 -4 -19 -14 3 -8 1
-17 -5 -21 -6 -3 -11 0 -11 8 0 8 -9 17 -20 20 -12 3 -20 14 -20 26 0 24 1 25
35 9z m-1754 -8 c10 0 19 -4 19 -10 0 -5 -13 -10 -30 -10 -27 0 -30 -3 -30
-30 0 -17 -7 -47 -15 -66 -12 -28 -19 -35 -32 -29 -10 4 -28 10 -40 12 -36 8
-15 24 22 17 l32 -6 8 59 c8 68 12 76 32 69 8 -3 23 -6 34 -6z m1393 -26 c4
-9 4 -19 2 -21 -8 -8 -26 8 -26 23 0 19 16 18 24 -2z m-1514 -9 c7 -8 19 -15
27 -15 26 0 8 -25 -20 -28 -21 -3 -29 2 -36 20 -14 37 5 52 29 23z m260 -27
c0 -46 -42 -148 -60 -148 -6 0 1 23 16 52 20 40 25 61 21 95 -3 32 -1 43 9 43
10 0 14 -13 14 -42z m38 -115 c-2 -10 -13 -22 -26 -28 -12 -5 -22 -15 -22 -22
0 -7 -12 -13 -27 -13 -26 0 -25 1 17 40 47 43 63 50 58 23z m-305 -39 c13 -17
14 -24 5 -24 -20 0 -58 29 -58 45 0 20 32 7 53 -21z m103 -69 c13 -27 24 -62
24 -77 0 -27 -2 -28 -55 -28 -49 0 -58 -3 -91 -36 -35 -35 -36 -39 -32 -93 6
-69 37 -176 48 -164 5 4 10 47 12 95 3 75 6 90 27 112 24 26 73 42 91 31 7 -4
-5 -24 -30 -51 l-40 -44 0 -164 0 -165 29 -22 c16 -12 32 -34 35 -51 9 -45 54
-115 120 -185 74 -80 105 -97 163 -89 24 3 43 3 43 0 0 -3 -12 -16 -27 -29
-39 -33 -23 -41 32 -16 72 32 171 107 203 154 33 46 62 124 62 162 0 14 5 25
11 25 21 0 1 -92 -37 -168 -37 -75 -73 -111 -177 -177 -26 -16 -46 -34 -44
-40 2 -5 20 -11 41 -13 60 -5 147 57 207 148 20 30 34 21 24 -17 -7 -30 -82
-107 -135 -138 -53 -32 -52 -49 3 -42 38 5 51 2 82 -18 20 -14 38 -25 41 -25
2 0 21 26 41 57 20 32 48 74 63 93 40 52 52 115 59 320 l7 185 8 -125 c16
-240 14 -290 -13 -340 -13 -25 -46 -73 -73 -107 -43 -55 -47 -63 -29 -63 12 0
21 -4 21 -10 0 -5 11 -10 24 -10 20 0 28 9 41 45 29 75 41 73 37 -7 l-4 -70
29 22 30 22 41 -21 c50 -25 110 -28 119 -5 3 9 -6 60 -21 113 -25 89 -45 201
-46 259 0 31 18 28 25 -6 17 -84 40 -153 81 -247 40 -91 50 -106 68 -103 15 2
24 14 30 39 8 31 5 44 -19 85 -51 89 -58 106 -81 198 -30 114 -30 167 -2 225
32 68 134 165 210 201 71 34 146 40 172 15 21 -22 28 -98 24 -293 -2 -138 -6
-175 -18 -182 -48 -29 -100 131 -103 317 -2 97 -8 125 -24 109 -16 -16 -15
-263 1 -343 18 -86 60 -180 104 -233 l29 -34 44 28 c24 16 89 75 145 130 105
106 166 194 225 328 31 70 33 79 37 230 4 137 2 161 -13 184 -16 24 -21 26
-71 22 -62 -5 -68 2 -21 24 58 28 96 32 118 12 16 -15 19 -31 19 -113 0 -66 3
-91 10 -81 15 24 12 186 -4 225 -14 32 -17 34 -48 28 -18 -3 -50 -12 -70 -19
-42 -15 -55 -5 -37 27 6 12 8 35 5 51 l-6 30 35 -31 c42 -37 54 -38 105 -9 21
13 41 20 44 17 3 -2 8 -59 12 -125 5 -94 3 -138 -10 -204 -76 -377 -276 -653
-586 -809 -185 -93 -439 -144 -607 -120 -164 23 -374 102 -504 189 -139 94
-285 262 -363 418 -65 129 -116 343 -116 486 0 56 1 58 23 52 12 -4 39 -10 60
-13 73 -11 102 56 52 121 -35 45 -31 56 6 20 17 -16 42 -51 55 -79z m-95 -3
c40 -7 41 -8 25 -25 -23 -23 -48 -22 -80 4 -30 24 -34 43 -7 34 10 -3 38 -9
62 -13z m1929 -162 c20 -12 20 -247 1 -336 -17 -79 -50 -138 -78 -142 -33 -5
-36 25 -19 192 21 195 20 222 -4 253 -11 14 -20 30 -20 34 0 12 101 11 120 -1z
m-1694 -82 c-4 -24 -10 -138 -14 -255 -4 -116 -10 -215 -14 -219 -12 -11 -32
11 -59 63 -22 44 -24 59 -24 178 1 153 15 215 57 250 46 39 61 34 54 -17z
m174 18 c0 -7 -8 -33 -17 -57 -15 -38 -18 -82 -18 -304 l0 -260 -33 2 c-18 0
-42 9 -53 19 -17 16 -19 32 -19 198 0 308 29 416 112 416 17 0 28 -5 28 -14z
m157 -36 c18 -39 33 -171 33 -294 0 -100 -3 -117 -26 -164 -28 -57 -87 -115
-112 -110 -25 5 -34 104 -27 308 7 239 25 294 89 288 21 -2 35 -11 43 -28z
m1169 22 c29 -19 32 -50 25 -283 -8 -263 -13 -281 -81 -326 -64 -44 -63 -44
-56 165 7 195 22 360 36 397 17 44 50 65 76 47z"/>
<path d="M1455 796 c-75 -45 -145 -165 -145 -249 0 -104 65 -291 122 -354 13
-14 19 -30 15 -43 -4 -17 0 -20 28 -20 38 0 49 17 27 43 -21 24 1 22 23 -3 36
-40 49 -16 15 27 -30 38 -16 40 26 4 54 -48 65 -27 24 45 -69 122 -74 149 -75
368 -1 110 -6 201 -11 203 -5 1 -27 -8 -49 -21z"/>
</g>
</svg>
