<svg xmlns="http://www.w3.org/2000/svg" width="428" height="118" viewBox="0 0 428 118" version="1.1"><path d="M 401.571 21.571 C 398.266 24.877, 400.930 31, 405.674 31 C 408.186 31, 411 28.002, 411 25.326 C 411 20.892, 404.743 18.400, 401.571 21.571 M 72 22.310 C 64.761 24.406, 60.169 26.993, 54.518 32.157 L 49.220 37 36.273 37 L 23.327 37 20.745 42.250 C 19.325 45.138, 17.871 48.512, 17.514 49.750 L 16.865 52 29.801 52 L 42.737 52 42.737 60 L 42.737 68 29.849 68 L 16.962 68 17.606 70.750 C 17.961 72.263, 19.432 75.750, 20.876 78.500 L 23.500 83.500 36.938 83.780 L 50.376 84.061 54.438 88.155 C 56.672 90.407, 61.425 93.656, 65 95.375 C 71.013 98.266, 72.286 98.500, 82 98.494 C 91.465 98.488, 93.063 98.211, 98.215 95.687 C 101.359 94.147, 106.084 90.906, 108.715 88.483 L 113.500 84.079 100.418 84.040 L 87.336 84 90.668 77.380 C 92.501 73.738, 94 70.138, 94 69.380 C 94 68.278, 96.599 68, 106.893 68 C 121.430 68, 121 68.244, 121 60 C 121 51.763, 121.414 52, 107.027 52 L 94.268 52 92.092 46.033 C 90.896 42.752, 89.486 39.800, 88.958 39.474 C 86.068 37.688, 89.137 37, 100 37 C 106.600 37, 112 36.592, 112 36.093 C 112 34.010, 101.515 25.962, 96.202 23.965 C 89.148 21.316, 78.054 20.556, 72 22.310 M 402.571 22.571 C 401.707 23.436, 401 24.716, 401 25.416 C 401 26.934, 404.193 30, 405.772 30 C 406.880 30, 410 26.199, 410 24.849 C 410 23.633, 406.921 21, 405.500 21 C 404.754 21, 403.436 21.707, 402.571 22.571 M 403 25.500 C 403 28.115, 404.470 28.901, 405.338 26.750 C 405.741 25.750, 405.858 25.750, 405.921 26.750 C 406.072 29.134, 407.750 27.987, 407.750 25.500 C 407.750 22.867, 406.518 22.130, 405.662 24.250 C 405.259 25.250, 405.142 25.250, 405.079 24.250 C 404.928 21.858, 403 23.017, 403 25.500 M 150.500 32.208 C 147.157 34.125, 146.065 36.288, 146.032 41.059 C 145.993 46.628, 147.452 48.766, 153.126 51.455 C 157.333 53.448, 157.500 53.698, 157.500 58.013 C 157.500 62.332, 157.388 62.500, 154.500 62.500 C 152.150 62.500, 151.431 62.012, 151.180 60.250 C 150.932 58.501, 150.208 58, 147.930 58 C 144.568 58, 144.194 59.541, 146.483 63.966 C 149.249 69.315, 157.974 70.032, 161.637 65.211 C 163.304 63.016, 163.383 52.899, 161.750 50.699 C 161.063 49.773, 158.475 47.999, 156 46.758 C 152.407 44.955, 151.432 43.905, 151.164 41.549 C 150.748 37.889, 153.326 35.569, 156.138 37.074 C 157.162 37.622, 158 38.955, 158 40.035 C 158 41.552, 158.685 42, 161 42 C 164.342 42, 164.474 41.659, 162.892 37.119 C 161.147 32.115, 154.947 29.658, 150.500 32.208 M 264 49.639 L 264 68 266.500 68 L 269 68 269.063 57.250 L 269.125 46.500 271.813 53.929 C 273.291 58.015, 274.969 61.509, 275.542 61.693 C 276.115 61.877, 277.763 58.534, 279.203 54.264 L 281.821 46.500 281.910 57.250 L 282 68 284.500 68 L 287 68 287 49.667 L 287 31.334 284.750 31.486 C 282.860 31.613, 281.991 33.067, 279.319 40.569 C 277.569 45.481, 275.975 49.895, 275.776 50.378 C 275.577 50.861, 273.937 46.969, 272.131 41.730 C 269.346 33.651, 268.479 32.134, 266.424 31.741 L 264 31.277 264 49.639 M 169.489 44.012 C 168.150 45.492, 167.567 48.074, 167.285 53.762 C 166.856 62.446, 168.008 65.757, 172.151 67.743 C 176.537 69.846, 183 66.464, 183 62.066 C 183 60.716, 178.328 60.660, 177.500 62 C 177.160 62.550, 176.009 63, 174.941 63 C 173.191 63, 173 62.257, 173 55.469 C 173 49.402, 173.320 47.814, 174.645 47.306 C 175.619 46.932, 176.785 47.353, 177.505 48.338 C 179.260 50.738, 183 50.508, 183 48 C 183 42.573, 173.365 39.730, 169.489 44.012 M 186 55 L 186 68 188.964 68 L 191.928 68 192.214 58.250 L 192.500 48.500 195.750 47.543 C 198.194 46.824, 199 46.017, 199 44.293 C 199 41.790, 197.129 41.325, 193.934 43.035 C 192.601 43.749, 192 43.749, 192 43.035 C 192 42.466, 190.650 42, 189 42 L 186 42 186 55 M 201 53.977 C 201 65.592, 201.074 66.003, 203.456 67.563 C 204.807 68.448, 206.453 68.838, 207.113 68.430 C 207.774 68.022, 210.269 67.762, 212.657 67.852 L 217 68.016 217 55.008 L 217 42 214 42 L 211 42 211 52.570 C 211 62.959, 210.962 63.134, 208.750 62.820 C 206.606 62.515, 206.487 62.018, 206.215 52.250 C 205.933 42.099, 205.906 42, 203.465 42 L 201 42 201 53.977 M 221 55 L 221 68 223.465 68 C 225.906 68, 225.933 67.901, 226.215 57.750 C 226.479 48.262, 226.649 47.500, 228.500 47.500 C 230.351 47.500, 230.521 48.262, 230.785 57.750 L 231.070 68 234 68 L 236.930 68 237.215 57.750 C 237.479 48.262, 237.649 47.500, 239.500 47.500 C 241.351 47.500, 241.521 48.262, 241.785 57.750 C 242.067 67.901, 242.094 68, 244.535 68 L 247 68 247 56.571 C 247 47.515, 246.674 44.817, 245.429 43.571 C 243.569 41.712, 238.899 41.501, 237.200 43.200 C 236.267 44.133, 235.733 44.133, 234.800 43.200 C 234.140 42.540, 232.430 42, 231 42 C 229.570 42, 227.860 42.540, 227.200 43.200 C 226.267 44.133, 226 44.133, 226 43.200 C 226 42.540, 224.875 42, 223.500 42 L 221 42 221 55 M 294 44 C 292.900 45.100, 292 46.675, 292 47.500 C 292 49.279, 296.061 49.539, 297.733 47.867 C 299.483 46.117, 302 47.651, 302 50.469 C 302 52.655, 301.557 53.002, 298.750 53.015 C 294.289 53.036, 292.996 54.085, 292.003 58.487 C 290.419 65.509, 294.788 70.525, 299.750 67.380 C 301.021 66.574, 302 66.399, 302 66.977 C 302 67.540, 303.125 68, 304.500 68 L 307 68 307 57 C 307 44.321, 305.840 42, 299.500 42 C 297.333 42, 295.238 42.762, 294 44 M 313 55 L 313 68 315.465 68 C 317.906 68, 317.933 67.901, 318.215 57.750 C 318.479 48.262, 318.649 47.500, 320.500 47.500 C 322.351 47.500, 322.521 48.262, 322.785 57.750 C 323.067 67.901, 323.094 68, 325.535 68 L 328 68 328 56.655 C 328 46.934, 327.738 45.073, 326.171 43.655 C 324.077 41.759, 320.903 41.497, 319.313 43.087 C 318.530 43.870, 318.038 43.870, 317.554 43.087 C 317.184 42.489, 316.009 42, 314.941 42 C 313.119 42, 313 42.798, 313 55 M 334.455 44.455 C 333.105 45.805, 332 47.380, 332 47.955 C 332 49.353, 335.571 49.285, 337.881 47.842 C 340.509 46.201, 343 47.480, 343 50.469 C 343 52.749, 342.609 53, 339.057 53 C 336.115 53, 334.718 53.565, 333.557 55.223 C 331.775 57.766, 331.513 63.221, 333.035 66.066 C 334.222 68.283, 339.846 68.754, 341.800 66.800 C 342.733 65.867, 343 65.867, 343 66.800 C 343 67.460, 344.165 68, 345.588 68 L 348.177 68 347.838 56.910 C 347.526 46.668, 347.319 45.673, 345.139 43.910 C 341.852 41.250, 337.434 41.476, 334.455 44.455 M 353.035 43.934 C 352.466 44.998, 352 49.978, 352 55 C 352 60.022, 352.466 65.002, 353.035 66.066 C 354.208 68.258, 358.899 68.701, 360.800 66.800 C 361.733 65.867, 362 66.429, 362 69.331 C 362 73.594, 359.518 75.429, 357.495 72.662 C 355.948 70.547, 352 70.463, 352 72.545 C 352 73.395, 353.105 75.195, 354.455 76.545 C 357.485 79.576, 362.220 79.780, 365 77 C 366.838 75.162, 367 73.667, 367 58.500 C 367 42.834, 366.902 42, 365.059 42 C 363.991 42, 362.816 42.489, 362.446 43.087 C 361.962 43.870, 361.470 43.870, 360.687 43.087 C 358.881 41.281, 354.177 41.802, 353.035 43.934 M 374 44 C 372.304 45.696, 372 47.333, 372 54.777 C 372 65.622, 373.262 68, 379.018 68 C 382.996 68, 387 65.147, 387 62.311 C 387 60.783, 382.413 60.523, 381.500 62 C 381.160 62.550, 380.009 63, 378.941 63 C 377.451 63, 377 62.303, 377 60 C 377 57.067, 377.111 57, 382 57 L 387 57 387 51.674 C 387 47.400, 386.543 45.919, 384.686 44.174 C 381.740 41.407, 376.676 41.324, 374 44 M 391 55 L 391 68 393.500 68 C 395.965 68, 396 67.885, 396 59.723 C 396 50.768, 397.498 47, 401.057 47 C 402.463 47, 403 46.309, 403 44.500 C 403 41.633, 401.415 41.320, 398.223 43.557 C 396.211 44.966, 396 44.966, 396 43.557 C 396 42.563, 395.096 42, 393.500 42 L 391 42 391 55 M 357.446 48.281 C 357.144 49.067, 357.033 52.588, 357.199 56.105 C 357.472 61.906, 357.713 62.530, 359.793 62.825 C 362.037 63.143, 362.081 62.982, 361.793 55.336 C 361.549 48.822, 361.208 47.466, 359.747 47.187 C 358.783 47.003, 357.747 47.495, 357.446 48.281 M 377.701 47.632 C 377.316 48.018, 377 49.383, 377 50.667 C 377 52.505, 377.544 53, 379.566 53 C 381.774 53, 382.089 52.617, 381.816 50.259 C 381.514 47.638, 379.183 46.150, 377.701 47.632 M 297.074 58.862 C 296.369 60.180, 296.462 61.250, 297.394 62.524 C 299.328 65.169, 302 63.723, 302 60.031 C 302 57.685, 301.556 57, 300.035 57 C 298.955 57, 297.622 57.838, 297.074 58.862 M 337.667 57.667 C 336.412 58.921, 336.998 63.062, 338.513 63.643 C 340.632 64.457, 343 62.206, 343 59.378 C 343 57.553, 342.457 57, 340.667 57 C 339.383 57, 338.033 57.300, 337.667 57.667 M 249 80.838 L 249 87.676 252.705 87.815 C 256.771 87.968, 257.961 86.854, 257.985 82.872 C 258.003 79.679, 255.722 77.578, 253.005 78.288 C 251.409 78.706, 251 78.323, 251 76.406 C 251 75.083, 250.550 74, 250 74 C 249.431 74, 249 76.946, 249 80.838 M 147 80.378 C 147 86.645, 148.360 88.281, 153.185 87.818 L 156.500 87.500 156.798 81.250 C 156.973 77.560, 156.687 75, 156.098 75 C 155.549 75, 154.965 77.588, 154.800 80.750 C 154.519 86.137, 154.342 86.500, 152 86.500 C 149.658 86.500, 149.481 86.137, 149.200 80.750 C 148.821 73.481, 147 73.172, 147 80.378 M 270.211 77.538 C 269.501 78.342, 269.363 79, 269.903 79 C 270.443 79, 271.023 80.909, 271.193 83.241 C 271.437 86.613, 271.910 87.532, 273.500 87.724 C 274.600 87.856, 274.938 87.710, 274.250 87.399 C 272.629 86.665, 272.621 80.293, 274.241 79.753 C 275.144 79.452, 275.027 78.884, 273.813 77.670 C 271.824 75.682, 271.847 75.682, 270.211 77.538 M 277.260 77.485 C 276.478 78.373, 276.386 79.120, 277.010 79.506 C 277.554 79.843, 278 81.891, 278 84.059 C 278 87.484, 278.295 87.998, 280.250 87.985 C 281.883 87.974, 282.130 87.735, 281.151 87.115 C 280.320 86.588, 279.894 84.772, 280.041 82.380 C 280.454 75.656, 279.832 74.562, 277.260 77.485 M 160 83.218 C 160 85.848, 160.450 88, 161 88 C 161.550 88, 162 86.248, 162 84.107 C 162 81.690, 162.532 80.010, 163.402 79.676 C 165.441 78.894, 166 79.860, 166 84.167 C 166 86.275, 166.475 88, 167.055 88 C 167.689 88, 167.988 86.107, 167.805 83.250 L 167.500 78.500 163.750 78.468 L 160 78.436 160 83.218 M 172.385 78.765 C 170.556 79.970, 169.812 83.781, 170.980 85.962 C 172.160 88.167, 177.366 88.836, 178.541 86.933 C 179.631 85.170, 178.334 84.775, 176.067 86.181 C 174.270 87.295, 173.791 87.267, 172.985 86 C 171.561 83.762, 171.802 81.409, 173.608 79.910 C 174.974 78.777, 175.425 78.860, 176.598 80.465 C 177.358 81.504, 178.273 82.060, 178.632 81.701 C 179.603 80.731, 177.004 77.998, 175.128 78.015 C 174.232 78.024, 172.998 78.361, 172.385 78.765 M 182.054 79.435 C 181.399 80.224, 181.007 82.361, 181.182 84.185 C 181.462 87.099, 181.885 87.537, 184.684 87.808 C 187.086 88.041, 188.142 87.602, 188.989 86.021 C 191.701 80.953, 185.601 75.161, 182.054 79.435 M 191.252 79.250 C 191.508 79.938, 192.324 82.194, 193.065 84.265 C 193.806 86.335, 194.830 87.890, 195.341 87.720 C 195.852 87.549, 197.118 85.252, 198.154 82.615 C 199.389 79.470, 199.624 77.959, 198.837 78.221 C 198.178 78.441, 197.115 80.169, 196.477 82.060 L 195.316 85.500 193.957 81.750 C 193.210 79.688, 192.190 78, 191.692 78 C 191.194 78, 190.996 78.563, 191.252 79.250 M 202.243 79.157 C 201.559 79.841, 201 81.650, 201 83.177 C 201 86.351, 204.731 89.424, 207.359 88.416 C 209.857 87.457, 209.319 86.416, 206.348 86.461 C 204.889 86.482, 203.501 85.938, 203.264 85.250 C 202.979 84.423, 203.900 84, 205.983 84 C 208.829 84, 209.102 83.735, 208.816 81.250 C 208.576 79.165, 207.894 78.429, 205.993 78.207 C 204.614 78.046, 202.927 78.473, 202.243 79.157 M 211.450 78.883 C 210.538 79.795, 211.033 88, 212 88 C 212.550 88, 213 86.411, 213 84.469 C 213 82.252, 213.559 80.723, 214.500 80.362 C 216.702 79.517, 216.328 78.100, 213.950 78.279 C 212.823 78.364, 211.698 78.636, 211.450 78.883 M 218 83 C 218 85.750, 218.450 88, 219 88 C 219.550 88, 220 85.750, 220 83 C 220 80.250, 219.550 78, 219 78 C 218.450 78, 218 80.250, 218 83 M 223 83.218 C 223 85.848, 223.450 88, 224 88 C 224.550 88, 225 86.248, 225 84.107 C 225 81.690, 225.532 80.010, 226.402 79.676 C 228.441 78.894, 229 79.860, 229 84.167 C 229 86.275, 229.475 88, 230.055 88 C 230.689 88, 230.988 86.107, 230.805 83.250 L 230.500 78.500 226.750 78.468 L 223 78.436 223 83.218 M 235.296 78.817 C 234.670 79.204, 233.859 80.714, 233.493 82.173 C 232.684 85.395, 235.966 89.334, 238.614 88.318 C 239.765 87.876, 240.124 88.112, 239.785 89.091 C 239.517 89.866, 238.331 90.464, 237.149 90.421 C 235.967 90.377, 235 90.714, 235 91.171 C 235 91.627, 236.302 92, 237.893 92 C 241.339 92, 242.001 90.657, 241.998 83.668 C 241.996 78.729, 241.873 78.491, 239.214 78.307 C 237.685 78.201, 235.921 78.431, 235.296 78.817 M 261.243 79.157 C 260.559 79.841, 260 81.650, 260 83.177 C 260 86.351, 263.731 89.424, 266.359 88.416 C 268.857 87.457, 268.319 86.416, 265.348 86.461 C 263.889 86.482, 262.501 85.938, 262.264 85.250 C 261.979 84.423, 262.900 84, 264.983 84 C 267.829 84, 268.102 83.735, 267.816 81.250 C 267.576 79.165, 266.894 78.429, 264.993 78.207 C 263.614 78.046, 261.927 78.473, 261.243 79.157 M 284.536 79.960 C 281.267 83.573, 285.279 89.963, 289.750 88.262 C 291.938 87.429, 291.093 86.260, 288.641 86.728 C 287.101 87.023, 286.071 86.627, 285.673 85.590 C 285.188 84.325, 285.772 84, 288.531 84 C 292.167 84, 292.681 83.141, 290.965 79.934 C 289.636 77.451, 286.797 77.462, 284.536 79.960 M 294.001 83.250 C 294 85.862, 294.450 88, 295 88 C 295.550 88, 296 86.200, 296 84 C 296 81.111, 296.417 80, 297.500 80 C 298.325 80, 299 79.598, 299 79.106 C 299 78.614, 297.875 78.276, 296.501 78.356 C 294.206 78.488, 294.001 78.889, 294.001 83.250 M 304.259 78.620 C 304.555 79.104, 305.310 81.412, 305.937 83.750 C 307.303 88.843, 308.387 89.108, 310.028 84.750 L 311.251 81.500 312.270 84.750 C 312.831 86.537, 313.632 88, 314.051 88 C 315.031 88, 318.172 78.839, 317.443 78.109 C 316.582 77.249, 315.032 80.249, 315.015 82.809 C 314.994 85.953, 313.399 84.745, 312.654 81.021 C 311.881 77.155, 310.347 77.145, 309.500 81 C 308.683 84.721, 307.239 84.897, 306.816 81.327 C 306.642 79.857, 305.875 78.449, 305.111 78.197 C 304.347 77.946, 303.964 78.136, 304.259 78.620 M 321.029 78.961 C 320.220 79.473, 319.890 80.223, 320.296 80.629 C 320.701 81.035, 321.531 80.869, 322.139 80.261 C 323.281 79.119, 326 79.626, 326 80.982 C 326 81.404, 324.707 82.009, 323.126 82.325 C 321.546 82.641, 319.990 83.584, 319.669 84.421 C 318.827 86.616, 321.725 89.208, 323.819 88.133 C 324.744 87.659, 326.063 87.472, 326.750 87.718 C 328.408 88.313, 328.452 80.852, 326.800 79.200 C 325.372 77.772, 323.060 77.677, 321.029 78.961 M 330.947 83.102 C 332.854 88.122, 332.869 88.488, 331.228 90.312 C 329.584 92.139, 329.591 92.215, 331.370 91.866 C 333.063 91.535, 335.208 87.428, 337.436 80.250 C 338.648 76.346, 336.225 77.789, 334.917 81.750 L 333.679 85.500 332.521 82.060 C 331.884 80.169, 330.816 78.439, 330.150 78.217 C 329.353 77.951, 329.626 79.626, 330.947 83.102 M 340.667 78.667 C 338.988 80.346, 340.202 82.875, 343.187 83.915 C 345.683 84.785, 346.111 85.289, 345.162 86.238 C 344.213 87.187, 343.522 87.183, 341.975 86.216 C 340.873 85.528, 340 85.413, 340 85.956 C 340 87.405, 343.634 89.078, 345.350 88.419 C 348.089 87.368, 348.029 85.063, 345.218 83.305 C 343.723 82.370, 342.342 81.499, 342.150 81.369 C 341.957 81.239, 342.110 80.631, 342.489 80.018 C 342.990 79.207, 343.569 79.227, 344.613 80.094 C 346.220 81.427, 347.559 80.714, 346.541 79.067 C 345.815 77.891, 341.721 77.612, 340.667 78.667 M 183 81 C 181.728 83.376, 183.248 87, 185.516 87 C 187.483 87, 188.535 82.349, 186.989 80.487 C 185.324 78.481, 184.276 78.616, 183 81 M 203.991 80.511 C 202.962 81.750, 203.111 82, 204.878 82 C 206.045 82, 207 81.577, 207 81.059 C 207 79.327, 205.240 79.006, 203.991 80.511 M 235.961 80.546 C 234.263 82.592, 235.612 87.220, 237.786 86.808 C 240.038 86.382, 240.734 80.496, 238.627 79.687 C 237.813 79.375, 236.613 79.761, 235.961 80.546 M 263 80.500 C 261.945 81.771, 262.173 82, 264.500 82 C 266.827 82, 267.055 81.771, 266 80.500 C 265.315 79.675, 264.640 79, 264.500 79 C 264.360 79, 263.685 79.675, 263 80.500 M 285.951 80.559 C 284.962 81.751, 285.208 82, 287.378 82 C 290.188 82, 290.922 80.568, 288.573 79.666 C 287.788 79.365, 286.608 79.767, 285.951 80.559 M 251.412 81.368 C 250.406 83.989, 251.434 86.500, 253.514 86.500 C 255.052 86.500, 255.500 85.826, 255.500 83.514 C 255.500 80.242, 252.457 78.645, 251.412 81.368 M 321.543 84.931 C 321.226 85.443, 321.384 86.119, 321.893 86.434 C 323.076 87.165, 326 86.067, 326 84.893 C 326 83.710, 322.278 83.741, 321.543 84.931" stroke="none" fill="#6f809f" fill-rule="evenodd"/><path d="M 0 59.002 L 0 118.005 214.250 117.752 L 428.500 117.500 428.758 58.750 L 429.016 0 214.508 0 L 0 0 0 59.002 M 0.469 59.500 C 0.469 91.950, 0.595 105.080, 0.750 88.678 C 0.904 72.277, 0.904 45.727, 0.749 29.678 C 0.595 13.630, 0.469 27.050, 0.469 59.500 M 401.571 21.571 C 398.266 24.877, 400.930 31, 405.674 31 C 408.186 31, 411 28.002, 411 25.326 C 411 20.892, 404.743 18.400, 401.571 21.571 M 72 22.310 C 64.761 24.406, 60.169 26.993, 54.518 32.157 L 49.220 37 36.273 37 L 23.327 37 20.745 42.250 C 19.325 45.138, 17.871 48.512, 17.514 49.750 L 16.865 52 29.801 52 L 42.737 52 42.737 60 L 42.737 68 29.849 68 L 16.962 68 17.606 70.750 C 17.961 72.263, 19.432 75.750, 20.876 78.500 L 23.500 83.500 36.938 83.780 L 50.376 84.061 54.438 88.155 C 56.672 90.407, 61.425 93.656, 65 95.375 C 71.013 98.266, 72.286 98.500, 82 98.494 C 91.465 98.488, 93.063 98.211, 98.215 95.687 C 101.359 94.147, 106.084 90.906, 108.715 88.483 L 113.500 84.079 100.418 84.040 L 87.336 84 90.668 77.380 C 92.501 73.738, 94 70.138, 94 69.380 C 94 68.278, 96.599 68, 106.893 68 C 121.430 68, 121 68.244, 121 60 C 121 51.763, 121.414 52, 107.027 52 L 94.268 52 92.092 46.033 C 90.896 42.752, 89.486 39.800, 88.958 39.474 C 86.068 37.688, 89.137 37, 100 37 C 106.600 37, 112 36.592, 112 36.093 C 112 34.010, 101.515 25.962, 96.202 23.965 C 89.148 21.316, 78.054 20.556, 72 22.310 M 402.571 22.571 C 401.707 23.436, 401 24.716, 401 25.416 C 401 26.934, 404.193 30, 405.772 30 C 406.880 30, 410 26.199, 410 24.849 C 410 23.633, 406.921 21, 405.500 21 C 404.754 21, 403.436 21.707, 402.571 22.571 M 403 25.500 C 403 28.115, 404.470 28.901, 405.338 26.750 C 405.741 25.750, 405.858 25.750, 405.921 26.750 C 406.072 29.134, 407.750 27.987, 407.750 25.500 C 407.750 22.867, 406.518 22.130, 405.662 24.250 C 405.259 25.250, 405.142 25.250, 405.079 24.250 C 404.928 21.858, 403 23.017, 403 25.500 M 150.500 32.208 C 147.157 34.125, 146.065 36.288, 146.032 41.059 C 145.993 46.628, 147.452 48.766, 153.126 51.455 C 157.333 53.448, 157.500 53.698, 157.500 58.013 C 157.500 62.332, 157.388 62.500, 154.500 62.500 C 152.150 62.500, 151.431 62.012, 151.180 60.250 C 150.932 58.501, 150.208 58, 147.930 58 C 144.568 58, 144.194 59.541, 146.483 63.966 C 149.249 69.315, 157.974 70.032, 161.637 65.211 C 163.304 63.016, 163.383 52.899, 161.750 50.699 C 161.063 49.773, 158.475 47.999, 156 46.758 C 152.407 44.955, 151.432 43.905, 151.164 41.549 C 150.748 37.889, 153.326 35.569, 156.138 37.074 C 157.162 37.622, 158 38.955, 158 40.035 C 158 41.552, 158.685 42, 161 42 C 164.342 42, 164.474 41.659, 162.892 37.119 C 161.147 32.115, 154.947 29.658, 150.500 32.208 M 264 49.639 L 264 68 266.500 68 L 269 68 269.063 57.250 L 269.125 46.500 271.813 53.929 C 273.291 58.015, 274.969 61.509, 275.542 61.693 C 276.115 61.877, 277.763 58.534, 279.203 54.264 L 281.821 46.500 281.910 57.250 L 282 68 284.500 68 L 287 68 287 49.667 L 287 31.334 284.750 31.486 C 282.860 31.613, 281.991 33.067, 279.319 40.569 C 277.569 45.481, 275.975 49.895, 275.776 50.378 C 275.577 50.861, 273.937 46.969, 272.131 41.730 C 269.346 33.651, 268.479 32.134, 266.424 31.741 L 264 31.277 264 49.639 M 169.489 44.012 C 168.150 45.492, 167.567 48.074, 167.285 53.762 C 166.856 62.446, 168.008 65.757, 172.151 67.743 C 176.537 69.846, 183 66.464, 183 62.066 C 183 60.716, 178.328 60.660, 177.500 62 C 177.160 62.550, 176.009 63, 174.941 63 C 173.191 63, 173 62.257, 173 55.469 C 173 49.402, 173.320 47.814, 174.645 47.306 C 175.619 46.932, 176.785 47.353, 177.505 48.338 C 179.260 50.738, 183 50.508, 183 48 C 183 42.573, 173.365 39.730, 169.489 44.012 M 186 55 L 186 68 188.964 68 L 191.928 68 192.214 58.250 L 192.500 48.500 195.750 47.543 C 198.194 46.824, 199 46.017, 199 44.293 C 199 41.790, 197.129 41.325, 193.934 43.035 C 192.601 43.749, 192 43.749, 192 43.035 C 192 42.466, 190.650 42, 189 42 L 186 42 186 55 M 201 53.977 C 201 65.592, 201.074 66.003, 203.456 67.563 C 204.807 68.448, 206.453 68.838, 207.113 68.430 C 207.774 68.022, 210.269 67.762, 212.657 67.852 L 217 68.016 217 55.008 L 217 42 214 42 L 211 42 211 52.570 C 211 62.959, 210.962 63.134, 208.750 62.820 C 206.606 62.515, 206.487 62.018, 206.215 52.250 C 205.933 42.099, 205.906 42, 203.465 42 L 201 42 201 53.977 M 221 55 L 221 68 223.465 68 C 225.906 68, 225.933 67.901, 226.215 57.750 C 226.479 48.262, 226.649 47.500, 228.500 47.500 C 230.351 47.500, 230.521 48.262, 230.785 57.750 L 231.070 68 234 68 L 236.930 68 237.215 57.750 C 237.479 48.262, 237.649 47.500, 239.500 47.500 C 241.351 47.500, 241.521 48.262, 241.785 57.750 C 242.067 67.901, 242.094 68, 244.535 68 L 247 68 247 56.571 C 247 47.515, 246.674 44.817, 245.429 43.571 C 243.569 41.712, 238.899 41.501, 237.200 43.200 C 236.267 44.133, 235.733 44.133, 234.800 43.200 C 234.140 42.540, 232.430 42, 231 42 C 229.570 42, 227.860 42.540, 227.200 43.200 C 226.267 44.133, 226 44.133, 226 43.200 C 226 42.540, 224.875 42, 223.500 42 L 221 42 221 55 M 294 44 C 292.900 45.100, 292 46.675, 292 47.500 C 292 49.279, 296.061 49.539, 297.733 47.867 C 299.483 46.117, 302 47.651, 302 50.469 C 302 52.655, 301.557 53.002, 298.750 53.015 C 294.289 53.036, 292.996 54.085, 292.003 58.487 C 290.419 65.509, 294.788 70.525, 299.750 67.380 C 301.021 66.574, 302 66.399, 302 66.977 C 302 67.540, 303.125 68, 304.500 68 L 307 68 307 57 C 307 44.321, 305.840 42, 299.500 42 C 297.333 42, 295.238 42.762, 294 44 M 313 55 L 313 68 315.465 68 C 317.906 68, 317.933 67.901, 318.215 57.750 C 318.479 48.262, 318.649 47.500, 320.500 47.500 C 322.351 47.500, 322.521 48.262, 322.785 57.750 C 323.067 67.901, 323.094 68, 325.535 68 L 328 68 328 56.655 C 328 46.934, 327.738 45.073, 326.171 43.655 C 324.077 41.759, 320.903 41.497, 319.313 43.087 C 318.530 43.870, 318.038 43.870, 317.554 43.087 C 317.184 42.489, 316.009 42, 314.941 42 C 313.119 42, 313 42.798, 313 55 M 334.455 44.455 C 333.105 45.805, 332 47.380, 332 47.955 C 332 49.353, 335.571 49.285, 337.881 47.842 C 340.509 46.201, 343 47.480, 343 50.469 C 343 52.749, 342.609 53, 339.057 53 C 336.115 53, 334.718 53.565, 333.557 55.223 C 331.775 57.766, 331.513 63.221, 333.035 66.066 C 334.222 68.283, 339.846 68.754, 341.800 66.800 C 342.733 65.867, 343 65.867, 343 66.800 C 343 67.460, 344.165 68, 345.588 68 L 348.177 68 347.838 56.910 C 347.526 46.668, 347.319 45.673, 345.139 43.910 C 341.852 41.250, 337.434 41.476, 334.455 44.455 M 353.035 43.934 C 352.466 44.998, 352 49.978, 352 55 C 352 60.022, 352.466 65.002, 353.035 66.066 C 354.208 68.258, 358.899 68.701, 360.800 66.800 C 361.733 65.867, 362 66.429, 362 69.331 C 362 73.594, 359.518 75.429, 357.495 72.662 C 355.948 70.547, 352 70.463, 352 72.545 C 352 73.395, 353.105 75.195, 354.455 76.545 C 357.485 79.576, 362.220 79.780, 365 77 C 366.838 75.162, 367 73.667, 367 58.500 C 367 42.834, 366.902 42, 365.059 42 C 363.991 42, 362.816 42.489, 362.446 43.087 C 361.962 43.870, 361.470 43.870, 360.687 43.087 C 358.881 41.281, 354.177 41.802, 353.035 43.934 M 374 44 C 372.304 45.696, 372 47.333, 372 54.777 C 372 65.622, 373.262 68, 379.018 68 C 382.996 68, 387 65.147, 387 62.311 C 387 60.783, 382.413 60.523, 381.500 62 C 381.160 62.550, 380.009 63, 378.941 63 C 377.451 63, 377 62.303, 377 60 C 377 57.067, 377.111 57, 382 57 L 387 57 387 51.674 C 387 47.400, 386.543 45.919, 384.686 44.174 C 381.740 41.407, 376.676 41.324, 374 44 M 391 55 L 391 68 393.500 68 C 395.965 68, 396 67.885, 396 59.723 C 396 50.768, 397.498 47, 401.057 47 C 402.463 47, 403 46.309, 403 44.500 C 403 41.633, 401.415 41.320, 398.223 43.557 C 396.211 44.966, 396 44.966, 396 43.557 C 396 42.563, 395.096 42, 393.500 42 L 391 42 391 55 M 357.446 48.281 C 357.144 49.067, 357.033 52.588, 357.199 56.105 C 357.472 61.906, 357.713 62.530, 359.793 62.825 C 362.037 63.143, 362.081 62.982, 361.793 55.336 C 361.549 48.822, 361.208 47.466, 359.747 47.187 C 358.783 47.003, 357.747 47.495, 357.446 48.281 M 377.701 47.632 C 377.316 48.018, 377 49.383, 377 50.667 C 377 52.505, 377.544 53, 379.566 53 C 381.774 53, 382.089 52.617, 381.816 50.259 C 381.514 47.638, 379.183 46.150, 377.701 47.632 M 297.074 58.862 C 296.369 60.180, 296.462 61.250, 297.394 62.524 C 299.328 65.169, 302 63.723, 302 60.031 C 302 57.685, 301.556 57, 300.035 57 C 298.955 57, 297.622 57.838, 297.074 58.862 M 337.667 57.667 C 336.412 58.921, 336.998 63.062, 338.513 63.643 C 340.632 64.457, 343 62.206, 343 59.378 C 343 57.553, 342.457 57, 340.667 57 C 339.383 57, 338.033 57.300, 337.667 57.667 M 249 80.838 L 249 87.676 252.705 87.815 C 256.771 87.968, 257.961 86.854, 257.985 82.872 C 258.003 79.679, 255.722 77.578, 253.005 78.288 C 251.409 78.706, 251 78.323, 251 76.406 C 251 75.083, 250.550 74, 250 74 C 249.431 74, 249 76.946, 249 80.838 M 147 80.378 C 147 86.645, 148.360 88.281, 153.185 87.818 L 156.500 87.500 156.798 81.250 C 156.973 77.560, 156.687 75, 156.098 75 C 155.549 75, 154.965 77.588, 154.800 80.750 C 154.519 86.137, 154.342 86.500, 152 86.500 C 149.658 86.500, 149.481 86.137, 149.200 80.750 C 148.821 73.481, 147 73.172, 147 80.378 M 270.211 77.538 C 269.501 78.342, 269.363 79, 269.903 79 C 270.443 79, 271.023 80.909, 271.193 83.241 C 271.437 86.613, 271.910 87.532, 273.500 87.724 C 274.600 87.856, 274.938 87.710, 274.250 87.399 C 272.629 86.665, 272.621 80.293, 274.241 79.753 C 275.144 79.452, 275.027 78.884, 273.813 77.670 C 271.824 75.682, 271.847 75.682, 270.211 77.538 M 277.260 77.485 C 276.478 78.373, 276.386 79.120, 277.010 79.506 C 277.554 79.843, 278 81.891, 278 84.059 C 278 87.484, 278.295 87.998, 280.250 87.985 C 281.883 87.974, 282.130 87.735, 281.151 87.115 C 280.320 86.588, 279.894 84.772, 280.041 82.380 C 280.454 75.656, 279.832 74.562, 277.260 77.485 M 160 83.218 C 160 85.848, 160.450 88, 161 88 C 161.550 88, 162 86.248, 162 84.107 C 162 81.690, 162.532 80.010, 163.402 79.676 C 165.441 78.894, 166 79.860, 166 84.167 C 166 86.275, 166.475 88, 167.055 88 C 167.689 88, 167.988 86.107, 167.805 83.250 L 167.500 78.500 163.750 78.468 L 160 78.436 160 83.218 M 172.385 78.765 C 170.556 79.970, 169.812 83.781, 170.980 85.962 C 172.160 88.167, 177.366 88.836, 178.541 86.933 C 179.631 85.170, 178.334 84.775, 176.067 86.181 C 174.270 87.295, 173.791 87.267, 172.985 86 C 171.561 83.762, 171.802 81.409, 173.608 79.910 C 174.974 78.777, 175.425 78.860, 176.598 80.465 C 177.358 81.504, 178.273 82.060, 178.632 81.701 C 179.603 80.731, 177.004 77.998, 175.128 78.015 C 174.232 78.024, 172.998 78.361, 172.385 78.765 M 182.054 79.435 C 181.399 80.224, 181.007 82.361, 181.182 84.185 C 181.462 87.099, 181.885 87.537, 184.684 87.808 C 187.086 88.041, 188.142 87.602, 188.989 86.021 C 191.701 80.953, 185.601 75.161, 182.054 79.435 M 191.252 79.250 C 191.508 79.938, 192.324 82.194, 193.065 84.265 C 193.806 86.335, 194.830 87.890, 195.341 87.720 C 195.852 87.549, 197.118 85.252, 198.154 82.615 C 199.389 79.470, 199.624 77.959, 198.837 78.221 C 198.178 78.441, 197.115 80.169, 196.477 82.060 L 195.316 85.500 193.957 81.750 C 193.210 79.688, 192.190 78, 191.692 78 C 191.194 78, 190.996 78.563, 191.252 79.250 M 202.243 79.157 C 201.559 79.841, 201 81.650, 201 83.177 C 201 86.351, 204.731 89.424, 207.359 88.416 C 209.857 87.457, 209.319 86.416, 206.348 86.461 C 204.889 86.482, 203.501 85.938, 203.264 85.250 C 202.979 84.423, 203.900 84, 205.983 84 C 208.829 84, 209.102 83.735, 208.816 81.250 C 208.576 79.165, 207.894 78.429, 205.993 78.207 C 204.614 78.046, 202.927 78.473, 202.243 79.157 M 211.450 78.883 C 210.538 79.795, 211.033 88, 212 88 C 212.550 88, 213 86.411, 213 84.469 C 213 82.252, 213.559 80.723, 214.500 80.362 C 216.702 79.517, 216.328 78.100, 213.950 78.279 C 212.823 78.364, 211.698 78.636, 211.450 78.883 M 218 83 C 218 85.750, 218.450 88, 219 88 C 219.550 88, 220 85.750, 220 83 C 220 80.250, 219.550 78, 219 78 C 218.450 78, 218 80.250, 218 83 M 223 83.218 C 223 85.848, 223.450 88, 224 88 C 224.550 88, 225 86.248, 225 84.107 C 225 81.690, 225.532 80.010, 226.402 79.676 C 228.441 78.894, 229 79.860, 229 84.167 C 229 86.275, 229.475 88, 230.055 88 C 230.689 88, 230.988 86.107, 230.805 83.250 L 230.500 78.500 226.750 78.468 L 223 78.436 223 83.218 M 235.296 78.817 C 234.670 79.204, 233.859 80.714, 233.493 82.173 C 232.684 85.395, 235.966 89.334, 238.614 88.318 C 239.765 87.876, 240.124 88.112, 239.785 89.091 C 239.517 89.866, 238.331 90.464, 237.149 90.421 C 235.967 90.377, 235 90.714, 235 91.171 C 235 91.627, 236.302 92, 237.893 92 C 241.339 92, 242.001 90.657, 241.998 83.668 C 241.996 78.729, 241.873 78.491, 239.214 78.307 C 237.685 78.201, 235.921 78.431, 235.296 78.817 M 261.243 79.157 C 260.559 79.841, 260 81.650, 260 83.177 C 260 86.351, 263.731 89.424, 266.359 88.416 C 268.857 87.457, 268.319 86.416, 265.348 86.461 C 263.889 86.482, 262.501 85.938, 262.264 85.250 C 261.979 84.423, 262.900 84, 264.983 84 C 267.829 84, 268.102 83.735, 267.816 81.250 C 267.576 79.165, 266.894 78.429, 264.993 78.207 C 263.614 78.046, 261.927 78.473, 261.243 79.157 M 284.536 79.960 C 281.267 83.573, 285.279 89.963, 289.750 88.262 C 291.938 87.429, 291.093 86.260, 288.641 86.728 C 287.101 87.023, 286.071 86.627, 285.673 85.590 C 285.188 84.325, 285.772 84, 288.531 84 C 292.167 84, 292.681 83.141, 290.965 79.934 C 289.636 77.451, 286.797 77.462, 284.536 79.960 M 294.001 83.250 C 294 85.862, 294.450 88, 295 88 C 295.550 88, 296 86.200, 296 84 C 296 81.111, 296.417 80, 297.500 80 C 298.325 80, 299 79.598, 299 79.106 C 299 78.614, 297.875 78.276, 296.501 78.356 C 294.206 78.488, 294.001 78.889, 294.001 83.250 M 304.259 78.620 C 304.555 79.104, 305.310 81.412, 305.937 83.750 C 307.303 88.843, 308.387 89.108, 310.028 84.750 L 311.251 81.500 312.270 84.750 C 312.831 86.537, 313.632 88, 314.051 88 C 315.031 88, 318.172 78.839, 317.443 78.109 C 316.582 77.249, 315.032 80.249, 315.015 82.809 C 314.994 85.953, 313.399 84.745, 312.654 81.021 C 311.881 77.155, 310.347 77.145, 309.500 81 C 308.683 84.721, 307.239 84.897, 306.816 81.327 C 306.642 79.857, 305.875 78.449, 305.111 78.197 C 304.347 77.946, 303.964 78.136, 304.259 78.620 M 321.029 78.961 C 320.220 79.473, 319.890 80.223, 320.296 80.629 C 320.701 81.035, 321.531 80.869, 322.139 80.261 C 323.281 79.119, 326 79.626, 326 80.982 C 326 81.404, 324.707 82.009, 323.126 82.325 C 321.546 82.641, 319.990 83.584, 319.669 84.421 C 318.827 86.616, 321.725 89.208, 323.819 88.133 C 324.744 87.659, 326.063 87.472, 326.750 87.718 C 328.408 88.313, 328.452 80.852, 326.800 79.200 C 325.372 77.772, 323.060 77.677, 321.029 78.961 M 330.947 83.102 C 332.854 88.122, 332.869 88.488, 331.228 90.312 C 329.584 92.139, 329.591 92.215, 331.370 91.866 C 333.063 91.535, 335.208 87.428, 337.436 80.250 C 338.648 76.346, 336.225 77.789, 334.917 81.750 L 333.679 85.500 332.521 82.060 C 331.884 80.169, 330.816 78.439, 330.150 78.217 C 329.353 77.951, 329.626 79.626, 330.947 83.102 M 340.667 78.667 C 338.988 80.346, 340.202 82.875, 343.187 83.915 C 345.683 84.785, 346.111 85.289, 345.162 86.238 C 344.213 87.187, 343.522 87.183, 341.975 86.216 C 340.873 85.528, 340 85.413, 340 85.956 C 340 87.405, 343.634 89.078, 345.350 88.419 C 348.089 87.368, 348.029 85.063, 345.218 83.305 C 343.723 82.370, 342.342 81.499, 342.150 81.369 C 341.957 81.239, 342.110 80.631, 342.489 80.018 C 342.990 79.207, 343.569 79.227, 344.613 80.094 C 346.220 81.427, 347.559 80.714, 346.541 79.067 C 345.815 77.891, 341.721 77.612, 340.667 78.667 M 183 81 C 181.728 83.376, 183.248 87, 185.516 87 C 187.483 87, 188.535 82.349, 186.989 80.487 C 185.324 78.481, 184.276 78.616, 183 81 M 203.991 80.511 C 202.962 81.750, 203.111 82, 204.878 82 C 206.045 82, 207 81.577, 207 81.059 C 207 79.327, 205.240 79.006, 203.991 80.511 M 235.961 80.546 C 234.263 82.592, 235.612 87.220, 237.786 86.808 C 240.038 86.382, 240.734 80.496, 238.627 79.687 C 237.813 79.375, 236.613 79.761, 235.961 80.546 M 263 80.500 C 261.945 81.771, 262.173 82, 264.500 82 C 266.827 82, 267.055 81.771, 266 80.500 C 265.315 79.675, 264.640 79, 264.500 79 C 264.360 79, 263.685 79.675, 263 80.500 M 285.951 80.559 C 284.962 81.751, 285.208 82, 287.378 82 C 290.188 82, 290.922 80.568, 288.573 79.666 C 287.788 79.365, 286.608 79.767, 285.951 80.559 M 251.412 81.368 C 250.406 83.989, 251.434 86.500, 253.514 86.500 C 255.052 86.500, 255.500 85.826, 255.500 83.514 C 255.500 80.242, 252.457 78.645, 251.412 81.368 M 321.543 84.931 C 321.226 85.443, 321.384 86.119, 321.893 86.434 C 323.076 87.165, 326 86.067, 326 84.893 C 326 83.710, 322.278 83.741, 321.543 84.931" stroke="none" fill="#f9fafa" fill-rule="evenodd"/></svg>